<?xml version="1.0" encoding="utf-8"?><!DOCTYPE svg PUBLIC "-//W3C//DTD SVG 1.1//EN" "http://www.w3.org/Graphics/SVG/1.1/DTD/svg11.dtd"><svg xmlns:xlink="http://www.w3.org/1999/xlink" xmlns="http://www.w3.org/2000/svg" id="map" viewBox="0 0 231 231" width="1000" height="1000" data-dot="7"><rect x="0" y="0" height="231" width="231" fill="#ffffff" style="--darkreader-inline-fill: var(--darkreader-background-ffffff, #181a1b);" data-darkreader-inline-fill=""/><defs/><g fill="#000000" style="--darkreader-inline-fill: var(--darkreader-background-000000, #000000);" data-darkreader-inline-fill=""><rect x="28" y="182" width="21" height="21" transform="rotate(-90,38.5,192.5)"/><path clip-rule="evenodd" class="svgeye" d="M 14 168v 49h 49v -49zM 21 175h 35v 35h -35z" transform="rotate(-90,38.5,192.5)"/><rect x="182" y="28" width="21" height="21" transform="rotate(90,192.5,38.5)"/><path clip-rule="evenodd" class="svgeye" d="M 168 14v 49h 49v -49zM 175 21h 35v 35h -35z" transform="rotate(90,192.5,38.5)"/><rect x="28" y="28" width="21" height="21" transform="rotate(0,38.5,38.5)"/><path clip-rule="evenodd" class="svgeye" d="M 14 14v 49h 49v -49zM 21 21h 35v 35h -35z" transform="rotate(0,38.5,38.5)"/><rect x="77" y="14" width="7" height="7" transform="rotate(0,80.5,17.5)"/><rect x="91" y="14" width="7" height="7" transform="rotate(0,94.5,17.5)"/><rect x="98" y="14" width="7" height="7" transform="rotate(0,101.5,17.5)"/><rect x="105" y="14" width="7" height="7" transform="rotate(0,108.5,17.5)"/><rect x="126" y="14" width="7" height="7" transform="rotate(0,129.5,17.5)"/><rect x="140" y="14" width="7" height="7" transform="rotate(0,143.5,17.5)"/><rect x="154" y="14" width="7" height="7" transform="rotate(0,157.5,17.5)"/><rect x="105" y="21" width="7" height="7" transform="rotate(0,108.5,24.5)"/><rect x="133" y="21" width="7" height="7" transform="rotate(0,136.5,24.5)"/><rect x="147" y="21" width="7" height="7" transform="rotate(0,150.5,24.5)"/><rect x="154" y="21" width="7" height="7" transform="rotate(0,157.5,24.5)"/><rect x="70" y="28" width="7" height="7" transform="rotate(0,73.5,31.5)"/><rect x="91" y="28" width="7" height="7" transform="rotate(0,94.5,31.5)"/><rect x="105" y="28" width="7" height="7" transform="rotate(0,108.5,31.5)"/><rect x="112" y="28" width="7" height="7" transform="rotate(0,115.5,31.5)"/><rect x="133" y="28" width="7" height="7" transform="rotate(0,136.5,31.5)"/><rect x="147" y="28" width="7" height="7" transform="rotate(0,150.5,31.5)"/><rect x="154" y="28" width="7" height="7" transform="rotate(0,157.5,31.5)"/><rect x="77" y="35" width="7" height="7" transform="rotate(0,80.5,38.5)"/><rect x="105" y="35" width="7" height="7" transform="rotate(0,108.5,38.5)"/><rect x="126" y="35" width="7" height="7" transform="rotate(0,129.5,38.5)"/><rect x="140" y="35" width="7" height="7" transform="rotate(0,143.5,38.5)"/><rect x="70" y="42" width="7" height="7" transform="rotate(0,73.5,45.5)"/><rect x="91" y="42" width="7" height="7" transform="rotate(0,94.5,45.5)"/><rect x="98" y="42" width="7" height="7" transform="rotate(0,101.5,45.5)"/><rect x="126" y="42" width="7" height="7" transform="rotate(0,129.5,45.5)"/><rect x="133" y="42" width="7" height="7" transform="rotate(0,136.5,45.5)"/><rect x="140" y="42" width="7" height="7" transform="rotate(0,143.5,45.5)"/><rect x="70" y="49" width="7" height="7" transform="rotate(0,73.5,52.5)"/><rect x="77" y="49" width="7" height="7" transform="rotate(0,80.5,52.5)"/><rect x="84" y="49" width="7" height="7" transform="rotate(0,87.5,52.5)"/><rect x="91" y="49" width="7" height="7" transform="rotate(0,94.5,52.5)"/><rect x="126" y="49" width="7" height="7" transform="rotate(0,129.5,52.5)"/><rect x="133" y="49" width="7" height="7" transform="rotate(0,136.5,52.5)"/><rect x="147" y="49" width="7" height="7" transform="rotate(0,150.5,52.5)"/><rect x="154" y="49" width="7" height="7" transform="rotate(0,157.5,52.5)"/><rect x="70" y="56" width="7" height="7" transform="rotate(0,73.5,59.5)"/><rect x="84" y="56" width="7" height="7" transform="rotate(0,87.5,59.5)"/><rect x="98" y="56" width="7" height="7" transform="rotate(0,101.5,59.5)"/><rect x="112" y="56" width="7" height="7" transform="rotate(0,115.5,59.5)"/><rect x="126" y="56" width="7" height="7" transform="rotate(0,129.5,59.5)"/><rect x="140" y="56" width="7" height="7" transform="rotate(0,143.5,59.5)"/><rect x="154" y="56" width="7" height="7" transform="rotate(0,157.5,59.5)"/><rect x="84" y="63" width="7" height="7" transform="rotate(0,87.5,66.5)"/><rect x="105" y="63" width="7" height="7" transform="rotate(0,108.5,66.5)"/><rect x="119" y="63" width="7" height="7" transform="rotate(0,122.5,66.5)"/><rect x="133" y="63" width="7" height="7" transform="rotate(0,136.5,66.5)"/><rect x="140" y="63" width="7" height="7" transform="rotate(0,143.5,66.5)"/><rect x="21" y="70" width="7" height="7" transform="rotate(0,24.5,73.5)"/><rect x="42" y="70" width="7" height="7" transform="rotate(0,45.5,73.5)"/><rect x="56" y="70" width="7" height="7" transform="rotate(0,59.5,73.5)"/><rect x="70" y="70" width="7" height="7" transform="rotate(0,73.5,73.5)"/><rect x="77" y="70" width="7" height="7" transform="rotate(0,80.5,73.5)"/><rect x="84" y="70" width="7" height="7" transform="rotate(0,87.5,73.5)"/><rect x="98" y="70" width="7" height="7" transform="rotate(0,101.5,73.5)"/><rect x="105" y="70" width="7" height="7" transform="rotate(0,108.5,73.5)"/><rect x="112" y="70" width="7" height="7" transform="rotate(0,115.5,73.5)"/><rect x="119" y="70" width="7" height="7" transform="rotate(0,122.5,73.5)"/><rect x="140" y="70" width="7" height="7" transform="rotate(0,143.5,73.5)"/><rect x="154" y="70" width="7" height="7" transform="rotate(0,157.5,73.5)"/><rect x="161" y="70" width="7" height="7" transform="rotate(0,164.5,73.5)"/><rect x="175" y="70" width="7" height="7" transform="rotate(0,178.5,73.5)"/><rect x="182" y="70" width="7" height="7" transform="rotate(0,185.5,73.5)"/><rect x="196" y="70" width="7" height="7" transform="rotate(0,199.5,73.5)"/><rect x="14" y="77" width="7" height="7" transform="rotate(0,17.5,80.5)"/><rect x="21" y="77" width="7" height="7" transform="rotate(0,24.5,80.5)"/><rect x="42" y="77" width="7" height="7" transform="rotate(0,45.5,80.5)"/><rect x="63" y="77" width="7" height="7" transform="rotate(0,66.5,80.5)"/><rect x="70" y="77" width="7" height="7" transform="rotate(0,73.5,80.5)"/><rect x="84" y="77" width="7" height="7" transform="rotate(0,87.5,80.5)"/><rect x="98" y="77" width="7" height="7" transform="rotate(0,101.5,80.5)"/><rect x="105" y="77" width="7" height="7" transform="rotate(0,108.5,80.5)"/><rect x="112" y="77" width="7" height="7" transform="rotate(0,115.5,80.5)"/><rect x="140" y="77" width="7" height="7" transform="rotate(0,143.5,80.5)"/><rect x="161" y="77" width="7" height="7" transform="rotate(0,164.5,80.5)"/><rect x="168" y="77" width="7" height="7" transform="rotate(0,171.5,80.5)"/><rect x="182" y="77" width="7" height="7" transform="rotate(0,185.5,80.5)"/><rect x="203" y="77" width="7" height="7" transform="rotate(0,206.5,80.5)"/><rect x="210" y="77" width="7" height="7" transform="rotate(0,213.5,80.5)"/><rect x="14" y="84" width="7" height="7" transform="rotate(0,17.5,87.5)"/><rect x="21" y="84" width="7" height="7" transform="rotate(0,24.5,87.5)"/><rect x="42" y="84" width="7" height="7" transform="rotate(0,45.5,87.5)"/><rect x="56" y="84" width="7" height="7" transform="rotate(0,59.5,87.5)"/><rect x="63" y="84" width="7" height="7" transform="rotate(0,66.5,87.5)"/><rect x="77" y="84" width="7" height="7" transform="rotate(0,80.5,87.5)"/><rect x="91" y="84" width="7" height="7" transform="rotate(0,94.5,87.5)"/><rect x="133" y="84" width="7" height="7" transform="rotate(0,136.5,87.5)"/><rect x="140" y="84" width="7" height="7" transform="rotate(0,143.5,87.5)"/><rect x="161" y="84" width="7" height="7" transform="rotate(0,164.5,87.5)"/><rect x="175" y="84" width="7" height="7" transform="rotate(0,178.5,87.5)"/><rect x="189" y="84" width="7" height="7" transform="rotate(0,192.5,87.5)"/><rect x="210" y="84" width="7" height="7" transform="rotate(0,213.5,87.5)"/><rect x="14" y="91" width="7" height="7" transform="rotate(0,17.5,94.5)"/><rect x="21" y="91" width="7" height="7" transform="rotate(0,24.5,94.5)"/><rect x="35" y="91" width="7" height="7" transform="rotate(0,38.5,94.5)"/><rect x="42" y="91" width="7" height="7" transform="rotate(0,45.5,94.5)"/><rect x="49" y="91" width="7" height="7" transform="rotate(0,52.5,94.5)"/><rect x="77" y="91" width="7" height="7" transform="rotate(0,80.5,94.5)"/><rect x="84" y="91" width="7" height="7" transform="rotate(0,87.5,94.5)"/><rect x="91" y="91" width="7" height="7" transform="rotate(0,94.5,94.5)"/><rect x="105" y="91" width="7" height="7" transform="rotate(0,108.5,94.5)"/><rect x="119" y="91" width="7" height="7" transform="rotate(0,122.5,94.5)"/><rect x="126" y="91" width="7" height="7" transform="rotate(0,129.5,94.5)"/><rect x="133" y="91" width="7" height="7" transform="rotate(0,136.5,94.5)"/><rect x="140" y="91" width="7" height="7" transform="rotate(0,143.5,94.5)"/><rect x="154" y="91" width="7" height="7" transform="rotate(0,157.5,94.5)"/><rect x="161" y="91" width="7" height="7" transform="rotate(0,164.5,94.5)"/><rect x="175" y="91" width="7" height="7" transform="rotate(0,178.5,94.5)"/><rect x="203" y="91" width="7" height="7" transform="rotate(0,206.5,94.5)"/><rect x="210" y="91" width="7" height="7" transform="rotate(0,213.5,94.5)"/><rect x="14" y="98" width="7" height="7" transform="rotate(0,17.5,101.5)"/><rect x="28" y="98" width="7" height="7" transform="rotate(0,31.5,101.5)"/><rect x="42" y="98" width="7" height="7" transform="rotate(0,45.5,101.5)"/><rect x="56" y="98" width="7" height="7" transform="rotate(0,59.5,101.5)"/><rect x="70" y="98" width="7" height="7" transform="rotate(0,73.5,101.5)"/><rect x="77" y="98" width="7" height="7" transform="rotate(0,80.5,101.5)"/><rect x="84" y="98" width="7" height="7" transform="rotate(0,87.5,101.5)"/><rect x="105" y="98" width="7" height="7" transform="rotate(0,108.5,101.5)"/><rect x="119" y="98" width="7" height="7" transform="rotate(0,122.5,101.5)"/><rect x="133" y="98" width="7" height="7" transform="rotate(0,136.5,101.5)"/><rect x="147" y="98" width="7" height="7" transform="rotate(0,150.5,101.5)"/><rect x="175" y="98" width="7" height="7" transform="rotate(0,178.5,101.5)"/><rect x="189" y="98" width="7" height="7" transform="rotate(0,192.5,101.5)"/><rect x="210" y="98" width="7" height="7" transform="rotate(0,213.5,101.5)"/><rect x="14" y="105" width="7" height="7" transform="rotate(0,17.5,108.5)"/><rect x="21" y="105" width="7" height="7" transform="rotate(0,24.5,108.5)"/><rect x="28" y="105" width="7" height="7" transform="rotate(0,31.5,108.5)"/><rect x="42" y="105" width="7" height="7" transform="rotate(0,45.5,108.5)"/><rect x="63" y="105" width="7" height="7" transform="rotate(0,66.5,108.5)"/><rect x="70" y="105" width="7" height="7" transform="rotate(0,73.5,108.5)"/><rect x="77" y="105" width="7" height="7" transform="rotate(0,80.5,108.5)"/><rect x="91" y="105" width="7" height="7" transform="rotate(0,94.5,108.5)"/><rect x="105" y="105" width="7" height="7" transform="rotate(0,108.5,108.5)"/><rect x="112" y="105" width="7" height="7" transform="rotate(0,115.5,108.5)"/><rect x="119" y="105" width="7" height="7" transform="rotate(0,122.5,108.5)"/><rect x="126" y="105" width="7" height="7" transform="rotate(0,129.5,108.5)"/><rect x="133" y="105" width="7" height="7" transform="rotate(0,136.5,108.5)"/><rect x="140" y="105" width="7" height="7" transform="rotate(0,143.5,108.5)"/><rect x="168" y="105" width="7" height="7" transform="rotate(0,171.5,108.5)"/><rect x="182" y="105" width="7" height="7" transform="rotate(0,185.5,108.5)"/><rect x="196" y="105" width="7" height="7" transform="rotate(0,199.5,108.5)"/><rect x="210" y="105" width="7" height="7" transform="rotate(0,213.5,108.5)"/><rect x="14" y="112" width="7" height="7" transform="rotate(0,17.5,115.5)"/><rect x="21" y="112" width="7" height="7" transform="rotate(0,24.5,115.5)"/><rect x="35" y="112" width="7" height="7" transform="rotate(0,38.5,115.5)"/><rect x="49" y="112" width="7" height="7" transform="rotate(0,52.5,115.5)"/><rect x="56" y="112" width="7" height="7" transform="rotate(0,59.5,115.5)"/><rect x="63" y="112" width="7" height="7" transform="rotate(0,66.5,115.5)"/><rect x="70" y="112" width="7" height="7" transform="rotate(0,73.5,115.5)"/><rect x="77" y="112" width="7" height="7" transform="rotate(0,80.5,115.5)"/><rect x="91" y="112" width="7" height="7" transform="rotate(0,94.5,115.5)"/><rect x="105" y="112" width="7" height="7" transform="rotate(0,108.5,115.5)"/><rect x="140" y="112" width="7" height="7" transform="rotate(0,143.5,115.5)"/><rect x="161" y="112" width="7" height="7" transform="rotate(0,164.5,115.5)"/><rect x="168" y="112" width="7" height="7" transform="rotate(0,171.5,115.5)"/><rect x="182" y="112" width="7" height="7" transform="rotate(0,185.5,115.5)"/><rect x="210" y="112" width="7" height="7" transform="rotate(0,213.5,115.5)"/><rect x="42" y="119" width="7" height="7" transform="rotate(0,45.5,122.5)"/><rect x="84" y="119" width="7" height="7" transform="rotate(0,87.5,122.5)"/><rect x="91" y="119" width="7" height="7" transform="rotate(0,94.5,122.5)"/><rect x="105" y="119" width="7" height="7" transform="rotate(0,108.5,122.5)"/><rect x="126" y="119" width="7" height="7" transform="rotate(0,129.5,122.5)"/><rect x="161" y="119" width="7" height="7" transform="rotate(0,164.5,122.5)"/><rect x="175" y="119" width="7" height="7" transform="rotate(0,178.5,122.5)"/><rect x="189" y="119" width="7" height="7" transform="rotate(0,192.5,122.5)"/><rect x="14" y="126" width="7" height="7" transform="rotate(0,17.5,129.5)"/><rect x="49" y="126" width="7" height="7" transform="rotate(0,52.5,129.5)"/><rect x="56" y="126" width="7" height="7" transform="rotate(0,59.5,129.5)"/><rect x="63" y="126" width="7" height="7" transform="rotate(0,66.5,129.5)"/><rect x="84" y="126" width="7" height="7" transform="rotate(0,87.5,129.5)"/><rect x="91" y="126" width="7" height="7" transform="rotate(0,94.5,129.5)"/><rect x="98" y="126" width="7" height="7" transform="rotate(0,101.5,129.5)"/><rect x="105" y="126" width="7" height="7" transform="rotate(0,108.5,129.5)"/><rect x="119" y="126" width="7" height="7" transform="rotate(0,122.5,129.5)"/><rect x="126" y="126" width="7" height="7" transform="rotate(0,129.5,129.5)"/><rect x="147" y="126" width="7" height="7" transform="rotate(0,150.5,129.5)"/><rect x="175" y="126" width="7" height="7" transform="rotate(0,178.5,129.5)"/><rect x="203" y="126" width="7" height="7" transform="rotate(0,206.5,129.5)"/><rect x="210" y="126" width="7" height="7" transform="rotate(0,213.5,129.5)"/><rect x="14" y="133" width="7" height="7" transform="rotate(0,17.5,136.5)"/><rect x="28" y="133" width="7" height="7" transform="rotate(0,31.5,136.5)"/><rect x="42" y="133" width="7" height="7" transform="rotate(0,45.5,136.5)"/><rect x="63" y="133" width="7" height="7" transform="rotate(0,66.5,136.5)"/><rect x="98" y="133" width="7" height="7" transform="rotate(0,101.5,136.5)"/><rect x="140" y="133" width="7" height="7" transform="rotate(0,143.5,136.5)"/><rect x="168" y="133" width="7" height="7" transform="rotate(0,171.5,136.5)"/><rect x="182" y="133" width="7" height="7" transform="rotate(0,185.5,136.5)"/><rect x="210" y="133" width="7" height="7" transform="rotate(0,213.5,136.5)"/><rect x="28" y="140" width="7" height="7" transform="rotate(0,31.5,143.5)"/><rect x="35" y="140" width="7" height="7" transform="rotate(0,38.5,143.5)"/><rect x="42" y="140" width="7" height="7" transform="rotate(0,45.5,143.5)"/><rect x="56" y="140" width="7" height="7" transform="rotate(0,59.5,143.5)"/><rect x="70" y="140" width="7" height="7" transform="rotate(0,73.5,143.5)"/><rect x="77" y="140" width="7" height="7" transform="rotate(0,80.5,143.5)"/><rect x="84" y="140" width="7" height="7" transform="rotate(0,87.5,143.5)"/><rect x="91" y="140" width="7" height="7" transform="rotate(0,94.5,143.5)"/><rect x="119" y="140" width="7" height="7" transform="rotate(0,122.5,143.5)"/><rect x="140" y="140" width="7" height="7" transform="rotate(0,143.5,143.5)"/><rect x="154" y="140" width="7" height="7" transform="rotate(0,157.5,143.5)"/><rect x="175" y="140" width="7" height="7" transform="rotate(0,178.5,143.5)"/><rect x="189" y="140" width="7" height="7" transform="rotate(0,192.5,143.5)"/><rect x="196" y="140" width="7" height="7" transform="rotate(0,199.5,143.5)"/><rect x="210" y="140" width="7" height="7" transform="rotate(0,213.5,143.5)"/><rect x="35" y="147" width="7" height="7" transform="rotate(0,38.5,150.5)"/><rect x="49" y="147" width="7" height="7" transform="rotate(0,52.5,150.5)"/><rect x="84" y="147" width="7" height="7" transform="rotate(0,87.5,150.5)"/><rect x="91" y="147" width="7" height="7" transform="rotate(0,94.5,150.5)"/><rect x="98" y="147" width="7" height="7" transform="rotate(0,101.5,150.5)"/><rect x="119" y="147" width="7" height="7" transform="rotate(0,122.5,150.5)"/><rect x="126" y="147" width="7" height="7" transform="rotate(0,129.5,150.5)"/><rect x="133" y="147" width="7" height="7" transform="rotate(0,136.5,150.5)"/><rect x="147" y="147" width="7" height="7" transform="rotate(0,150.5,150.5)"/><rect x="175" y="147" width="7" height="7" transform="rotate(0,178.5,150.5)"/><rect x="203" y="147" width="7" height="7" transform="rotate(0,206.5,150.5)"/><rect x="210" y="147" width="7" height="7" transform="rotate(0,213.5,150.5)"/><rect x="14" y="154" width="7" height="7" transform="rotate(0,17.5,157.5)"/><rect x="21" y="154" width="7" height="7" transform="rotate(0,24.5,157.5)"/><rect x="28" y="154" width="7" height="7" transform="rotate(0,31.5,157.5)"/><rect x="42" y="154" width="7" height="7" transform="rotate(0,45.5,157.5)"/><rect x="56" y="154" width="7" height="7" transform="rotate(0,59.5,157.5)"/><rect x="63" y="154" width="7" height="7" transform="rotate(0,66.5,157.5)"/><rect x="77" y="154" width="7" height="7" transform="rotate(0,80.5,157.5)"/><rect x="84" y="154" width="7" height="7" transform="rotate(0,87.5,157.5)"/><rect x="91" y="154" width="7" height="7" transform="rotate(0,94.5,157.5)"/><rect x="98" y="154" width="7" height="7" transform="rotate(0,101.5,157.5)"/><rect x="105" y="154" width="7" height="7" transform="rotate(0,108.5,157.5)"/><rect x="112" y="154" width="7" height="7" transform="rotate(0,115.5,157.5)"/><rect x="133" y="154" width="7" height="7" transform="rotate(0,136.5,157.5)"/><rect x="147" y="154" width="7" height="7" transform="rotate(0,150.5,157.5)"/><rect x="154" y="154" width="7" height="7" transform="rotate(0,157.5,157.5)"/><rect x="161" y="154" width="7" height="7" transform="rotate(0,164.5,157.5)"/><rect x="168" y="154" width="7" height="7" transform="rotate(0,171.5,157.5)"/><rect x="175" y="154" width="7" height="7" transform="rotate(0,178.5,157.5)"/><rect x="182" y="154" width="7" height="7" transform="rotate(0,185.5,157.5)"/><rect x="203" y="154" width="7" height="7" transform="rotate(0,206.5,157.5)"/><rect x="210" y="154" width="7" height="7" transform="rotate(0,213.5,157.5)"/><rect x="70" y="161" width="7" height="7" transform="rotate(0,73.5,164.5)"/><rect x="91" y="161" width="7" height="7" transform="rotate(0,94.5,164.5)"/><rect x="98" y="161" width="7" height="7" transform="rotate(0,101.5,164.5)"/><rect x="105" y="161" width="7" height="7" transform="rotate(0,108.5,164.5)"/><rect x="119" y="161" width="7" height="7" transform="rotate(0,122.5,164.5)"/><rect x="126" y="161" width="7" height="7" transform="rotate(0,129.5,164.5)"/><rect x="140" y="161" width="7" height="7" transform="rotate(0,143.5,164.5)"/><rect x="154" y="161" width="7" height="7" transform="rotate(0,157.5,164.5)"/><rect x="182" y="161" width="7" height="7" transform="rotate(0,185.5,164.5)"/><rect x="196" y="161" width="7" height="7" transform="rotate(0,199.5,164.5)"/><rect x="210" y="161" width="7" height="7" transform="rotate(0,213.5,164.5)"/><rect x="77" y="168" width="7" height="7" transform="rotate(0,80.5,171.5)"/><rect x="91" y="168" width="7" height="7" transform="rotate(0,94.5,171.5)"/><rect x="98" y="168" width="7" height="7" transform="rotate(0,101.5,171.5)"/><rect x="105" y="168" width="7" height="7" transform="rotate(0,108.5,171.5)"/><rect x="112" y="168" width="7" height="7" transform="rotate(0,115.5,171.5)"/><rect x="119" y="168" width="7" height="7" transform="rotate(0,122.5,171.5)"/><rect x="126" y="168" width="7" height="7" transform="rotate(0,129.5,171.5)"/><rect x="133" y="168" width="7" height="7" transform="rotate(0,136.5,171.5)"/><rect x="147" y="168" width="7" height="7" transform="rotate(0,150.5,171.5)"/><rect x="154" y="168" width="7" height="7" transform="rotate(0,157.5,171.5)"/><rect x="168" y="168" width="7" height="7" transform="rotate(0,171.5,171.5)"/><rect x="182" y="168" width="7" height="7" transform="rotate(0,185.5,171.5)"/><rect x="210" y="168" width="7" height="7" transform="rotate(0,213.5,171.5)"/><rect x="77" y="175" width="7" height="7" transform="rotate(0,80.5,178.5)"/><rect x="84" y="175" width="7" height="7" transform="rotate(0,87.5,178.5)"/><rect x="98" y="175" width="7" height="7" transform="rotate(0,101.5,178.5)"/><rect x="112" y="175" width="7" height="7" transform="rotate(0,115.5,178.5)"/><rect x="133" y="175" width="7" height="7" transform="rotate(0,136.5,178.5)"/><rect x="140" y="175" width="7" height="7" transform="rotate(0,143.5,178.5)"/><rect x="154" y="175" width="7" height="7" transform="rotate(0,157.5,178.5)"/><rect x="182" y="175" width="7" height="7" transform="rotate(0,185.5,178.5)"/><rect x="189" y="175" width="7" height="7" transform="rotate(0,192.5,178.5)"/><rect x="70" y="182" width="7" height="7" transform="rotate(0,73.5,185.5)"/><rect x="77" y="182" width="7" height="7" transform="rotate(0,80.5,185.5)"/><rect x="84" y="182" width="7" height="7" transform="rotate(0,87.5,185.5)"/><rect x="119" y="182" width="7" height="7" transform="rotate(0,122.5,185.5)"/><rect x="140" y="182" width="7" height="7" transform="rotate(0,143.5,185.5)"/><rect x="147" y="182" width="7" height="7" transform="rotate(0,150.5,185.5)"/><rect x="154" y="182" width="7" height="7" transform="rotate(0,157.5,185.5)"/><rect x="161" y="182" width="7" height="7" transform="rotate(0,164.5,185.5)"/><rect x="168" y="182" width="7" height="7" transform="rotate(0,171.5,185.5)"/><rect x="175" y="182" width="7" height="7" transform="rotate(0,178.5,185.5)"/><rect x="182" y="182" width="7" height="7" transform="rotate(0,185.5,185.5)"/><rect x="91" y="189" width="7" height="7" transform="rotate(0,94.5,192.5)"/><rect x="98" y="189" width="7" height="7" transform="rotate(0,101.5,192.5)"/><rect x="126" y="189" width="7" height="7" transform="rotate(0,129.5,192.5)"/><rect x="175" y="189" width="7" height="7" transform="rotate(0,178.5,192.5)"/><rect x="189" y="189" width="7" height="7" transform="rotate(0,192.5,192.5)"/><rect x="196" y="189" width="7" height="7" transform="rotate(0,199.5,192.5)"/><rect x="203" y="189" width="7" height="7" transform="rotate(0,206.5,192.5)"/><rect x="77" y="196" width="7" height="7" transform="rotate(0,80.5,199.5)"/><rect x="98" y="196" width="7" height="7" transform="rotate(0,101.5,199.5)"/><rect x="105" y="196" width="7" height="7" transform="rotate(0,108.5,199.5)"/><rect x="126" y="196" width="7" height="7" transform="rotate(0,129.5,199.5)"/><rect x="133" y="196" width="7" height="7" transform="rotate(0,136.5,199.5)"/><rect x="140" y="196" width="7" height="7" transform="rotate(0,143.5,199.5)"/><rect x="147" y="196" width="7" height="7" transform="rotate(0,150.5,199.5)"/><rect x="154" y="196" width="7" height="7" transform="rotate(0,157.5,199.5)"/><rect x="161" y="196" width="7" height="7" transform="rotate(0,164.5,199.5)"/><rect x="203" y="196" width="7" height="7" transform="rotate(0,206.5,199.5)"/><rect x="210" y="196" width="7" height="7" transform="rotate(0,213.5,199.5)"/><rect x="70" y="203" width="7" height="7" transform="rotate(0,73.5,206.5)"/><rect x="77" y="203" width="7" height="7" transform="rotate(0,80.5,206.5)"/><rect x="84" y="203" width="7" height="7" transform="rotate(0,87.5,206.5)"/><rect x="98" y="203" width="7" height="7" transform="rotate(0,101.5,206.5)"/><rect x="105" y="203" width="7" height="7" transform="rotate(0,108.5,206.5)"/><rect x="112" y="203" width="7" height="7" transform="rotate(0,115.5,206.5)"/><rect x="133" y="203" width="7" height="7" transform="rotate(0,136.5,206.5)"/><rect x="140" y="203" width="7" height="7" transform="rotate(0,143.5,206.5)"/><rect x="154" y="203" width="7" height="7" transform="rotate(0,157.5,206.5)"/><rect x="175" y="203" width="7" height="7" transform="rotate(0,178.5,206.5)"/><rect x="203" y="203" width="7" height="7" transform="rotate(0,206.5,206.5)"/><rect x="210" y="203" width="7" height="7" transform="rotate(0,213.5,206.5)"/><rect x="77" y="210" width="7" height="7" transform="rotate(0,80.5,213.5)"/><rect x="84" y="210" width="7" height="7" transform="rotate(0,87.5,213.5)"/><rect x="91" y="210" width="7" height="7" transform="rotate(0,94.5,213.5)"/><rect x="98" y="210" width="7" height="7" transform="rotate(0,101.5,213.5)"/><rect x="105" y="210" width="7" height="7" transform="rotate(0,108.5,213.5)"/><rect x="112" y="210" width="7" height="7" transform="rotate(0,115.5,213.5)"/><rect x="119" y="210" width="7" height="7" transform="rotate(0,122.5,213.5)"/><rect x="133" y="210" width="7" height="7" transform="rotate(0,136.5,213.5)"/><rect x="140" y="210" width="7" height="7" transform="rotate(0,143.5,213.5)"/><rect x="154" y="210" width="7" height="7" transform="rotate(0,157.5,213.5)"/><rect x="161" y="210" width="7" height="7" transform="rotate(0,164.5,213.5)"/><rect x="168" y="210" width="7" height="7" transform="rotate(0,171.5,213.5)"/><rect x="182" y="210" width="7" height="7" transform="rotate(0,185.5,213.5)"/><rect x="203" y="210" width="7" height="7" transform="rotate(0,206.5,213.5)"/></g></svg>