<?xml version="1.0" encoding="utf-8"?><!DOCTYPE svg PUBLIC "-//W3C//DTD SVG 1.1//EN" "http://www.w3.org/Graphics/SVG/1.1/DTD/svg11.dtd"><svg xmlns:xlink="http://www.w3.org/1999/xlink" xmlns="http://www.w3.org/2000/svg" id="map" viewBox="0 0 246 246" width="1000" height="1000" data-dot="6"><rect x="0" y="0" height="246" width="246" fill="#ffffff" style="--darkreader-inline-fill: var(--darkreader-background-ffffff, #181a1b);" data-darkreader-inline-fill=""/><defs/><g fill="#000000" style="--darkreader-inline-fill: var(--darkreader-background-000000, #000000);" data-darkreader-inline-fill=""><rect x="24" y="204" width="18" height="18" transform="rotate(-90,33,213)"/><path clip-rule="evenodd" class="svgeye" d="M 12 192v 42h 42v -42zM 18 198h 30v 30h -30z" transform="rotate(-90,33,213)"/><rect x="204" y="24" width="18" height="18" transform="rotate(90,213,33)"/><path clip-rule="evenodd" class="svgeye" d="M 192 12v 42h 42v -42zM 198 18h 30v 30h -30z" transform="rotate(90,213,33)"/><rect x="24" y="24" width="18" height="18" transform="rotate(0,33,33)"/><path clip-rule="evenodd" class="svgeye" d="M 12 12v 42h 42v -42zM 18 18h 30v 30h -30z" transform="rotate(0,33,33)"/><rect x="66" y="12" width="6" height="6" transform="rotate(0,69,15)"/><rect x="72" y="12" width="6" height="6" transform="rotate(0,75,15)"/><rect x="78" y="12" width="6" height="6" transform="rotate(0,81,15)"/><rect x="90" y="12" width="6" height="6" transform="rotate(0,93,15)"/><rect x="96" y="12" width="6" height="6" transform="rotate(0,99,15)"/><rect x="102" y="12" width="6" height="6" transform="rotate(0,105,15)"/><rect x="108" y="12" width="6" height="6" transform="rotate(0,111,15)"/><rect x="126" y="12" width="6" height="6" transform="rotate(0,129,15)"/><rect x="132" y="12" width="6" height="6" transform="rotate(0,135,15)"/><rect x="144" y="12" width="6" height="6" transform="rotate(0,147,15)"/><rect x="156" y="12" width="6" height="6" transform="rotate(0,159,15)"/><rect x="180" y="12" width="6" height="6" transform="rotate(0,183,15)"/><rect x="60" y="18" width="6" height="6" transform="rotate(0,63,21)"/><rect x="66" y="18" width="6" height="6" transform="rotate(0,69,21)"/><rect x="102" y="18" width="6" height="6" transform="rotate(0,105,21)"/><rect x="132" y="18" width="6" height="6" transform="rotate(0,135,21)"/><rect x="150" y="18" width="6" height="6" transform="rotate(0,153,21)"/><rect x="156" y="18" width="6" height="6" transform="rotate(0,159,21)"/><rect x="168" y="18" width="6" height="6" transform="rotate(0,171,21)"/><rect x="60" y="24" width="6" height="6" transform="rotate(0,63,27)"/><rect x="66" y="24" width="6" height="6" transform="rotate(0,69,27)"/><rect x="72" y="24" width="6" height="6" transform="rotate(0,75,27)"/><rect x="78" y="24" width="6" height="6" transform="rotate(0,81,27)"/><rect x="108" y="24" width="6" height="6" transform="rotate(0,111,27)"/><rect x="114" y="24" width="6" height="6" transform="rotate(0,117,27)"/><rect x="120" y="24" width="6" height="6" transform="rotate(0,123,27)"/><rect x="126" y="24" width="6" height="6" transform="rotate(0,129,27)"/><rect x="144" y="24" width="6" height="6" transform="rotate(0,147,27)"/><rect x="162" y="24" width="6" height="6" transform="rotate(0,165,27)"/><rect x="174" y="24" width="6" height="6" transform="rotate(0,177,27)"/><rect x="66" y="30" width="6" height="6" transform="rotate(0,69,33)"/><rect x="96" y="30" width="6" height="6" transform="rotate(0,99,33)"/><rect x="108" y="30" width="6" height="6" transform="rotate(0,111,33)"/><rect x="114" y="30" width="6" height="6" transform="rotate(0,117,33)"/><rect x="120" y="30" width="6" height="6" transform="rotate(0,123,33)"/><rect x="126" y="30" width="6" height="6" transform="rotate(0,129,33)"/><rect x="144" y="30" width="6" height="6" transform="rotate(0,147,33)"/><rect x="156" y="30" width="6" height="6" transform="rotate(0,159,33)"/><rect x="162" y="30" width="6" height="6" transform="rotate(0,165,33)"/><rect x="174" y="30" width="6" height="6" transform="rotate(0,177,33)"/><rect x="66" y="36" width="6" height="6" transform="rotate(0,69,39)"/><rect x="72" y="36" width="6" height="6" transform="rotate(0,75,39)"/><rect x="78" y="36" width="6" height="6" transform="rotate(0,81,39)"/><rect x="84" y="36" width="6" height="6" transform="rotate(0,87,39)"/><rect x="90" y="36" width="6" height="6" transform="rotate(0,93,39)"/><rect x="96" y="36" width="6" height="6" transform="rotate(0,99,39)"/><rect x="102" y="36" width="6" height="6" transform="rotate(0,105,39)"/><rect x="114" y="36" width="6" height="6" transform="rotate(0,117,39)"/><rect x="126" y="36" width="6" height="6" transform="rotate(0,129,39)"/><rect x="144" y="36" width="6" height="6" transform="rotate(0,147,39)"/><rect x="156" y="36" width="6" height="6" transform="rotate(0,159,39)"/><rect x="174" y="36" width="6" height="6" transform="rotate(0,177,39)"/><rect x="66" y="42" width="6" height="6" transform="rotate(0,69,45)"/><rect x="78" y="42" width="6" height="6" transform="rotate(0,81,45)"/><rect x="84" y="42" width="6" height="6" transform="rotate(0,87,45)"/><rect x="120" y="42" width="6" height="6" transform="rotate(0,123,45)"/><rect x="126" y="42" width="6" height="6" transform="rotate(0,129,45)"/><rect x="132" y="42" width="6" height="6" transform="rotate(0,135,45)"/><rect x="138" y="42" width="6" height="6" transform="rotate(0,141,45)"/><rect x="144" y="42" width="6" height="6" transform="rotate(0,147,45)"/><rect x="156" y="42" width="6" height="6" transform="rotate(0,159,45)"/><rect x="60" y="48" width="6" height="6" transform="rotate(0,63,51)"/><rect x="72" y="48" width="6" height="6" transform="rotate(0,75,51)"/><rect x="84" y="48" width="6" height="6" transform="rotate(0,87,51)"/><rect x="96" y="48" width="6" height="6" transform="rotate(0,99,51)"/><rect x="108" y="48" width="6" height="6" transform="rotate(0,111,51)"/><rect x="120" y="48" width="6" height="6" transform="rotate(0,123,51)"/><rect x="132" y="48" width="6" height="6" transform="rotate(0,135,51)"/><rect x="144" y="48" width="6" height="6" transform="rotate(0,147,51)"/><rect x="156" y="48" width="6" height="6" transform="rotate(0,159,51)"/><rect x="168" y="48" width="6" height="6" transform="rotate(0,171,51)"/><rect x="180" y="48" width="6" height="6" transform="rotate(0,183,51)"/><rect x="66" y="54" width="6" height="6" transform="rotate(0,69,57)"/><rect x="72" y="54" width="6" height="6" transform="rotate(0,75,57)"/><rect x="84" y="54" width="6" height="6" transform="rotate(0,87,57)"/><rect x="90" y="54" width="6" height="6" transform="rotate(0,93,57)"/><rect x="108" y="54" width="6" height="6" transform="rotate(0,111,57)"/><rect x="120" y="54" width="6" height="6" transform="rotate(0,123,57)"/><rect x="126" y="54" width="6" height="6" transform="rotate(0,129,57)"/><rect x="144" y="54" width="6" height="6" transform="rotate(0,147,57)"/><rect x="156" y="54" width="6" height="6" transform="rotate(0,159,57)"/><rect x="174" y="54" width="6" height="6" transform="rotate(0,177,57)"/><rect x="180" y="54" width="6" height="6" transform="rotate(0,183,57)"/><rect x="18" y="60" width="6" height="6" transform="rotate(0,21,63)"/><rect x="24" y="60" width="6" height="6" transform="rotate(0,27,63)"/><rect x="30" y="60" width="6" height="6" transform="rotate(0,33,63)"/><rect x="42" y="60" width="6" height="6" transform="rotate(0,45,63)"/><rect x="48" y="60" width="6" height="6" transform="rotate(0,51,63)"/><rect x="66" y="60" width="6" height="6" transform="rotate(0,69,63)"/><rect x="78" y="60" width="6" height="6" transform="rotate(0,81,63)"/><rect x="84" y="60" width="6" height="6" transform="rotate(0,87,63)"/><rect x="96" y="60" width="6" height="6" transform="rotate(0,99,63)"/><rect x="114" y="60" width="6" height="6" transform="rotate(0,117,63)"/><rect x="120" y="60" width="6" height="6" transform="rotate(0,123,63)"/><rect x="132" y="60" width="6" height="6" transform="rotate(0,135,63)"/><rect x="138" y="60" width="6" height="6" transform="rotate(0,141,63)"/><rect x="150" y="60" width="6" height="6" transform="rotate(0,153,63)"/><rect x="162" y="60" width="6" height="6" transform="rotate(0,165,63)"/><rect x="174" y="60" width="6" height="6" transform="rotate(0,177,63)"/><rect x="216" y="60" width="6" height="6" transform="rotate(0,219,63)"/><rect x="222" y="60" width="6" height="6" transform="rotate(0,225,63)"/><rect x="30" y="66" width="6" height="6" transform="rotate(0,33,69)"/><rect x="42" y="66" width="6" height="6" transform="rotate(0,45,69)"/><rect x="54" y="66" width="6" height="6" transform="rotate(0,57,69)"/><rect x="72" y="66" width="6" height="6" transform="rotate(0,75,69)"/><rect x="84" y="66" width="6" height="6" transform="rotate(0,87,69)"/><rect x="96" y="66" width="6" height="6" transform="rotate(0,99,69)"/><rect x="120" y="66" width="6" height="6" transform="rotate(0,123,69)"/><rect x="132" y="66" width="6" height="6" transform="rotate(0,135,69)"/><rect x="138" y="66" width="6" height="6" transform="rotate(0,141,69)"/><rect x="150" y="66" width="6" height="6" transform="rotate(0,153,69)"/><rect x="162" y="66" width="6" height="6" transform="rotate(0,165,69)"/><rect x="180" y="66" width="6" height="6" transform="rotate(0,183,69)"/><rect x="186" y="66" width="6" height="6" transform="rotate(0,189,69)"/><rect x="198" y="66" width="6" height="6" transform="rotate(0,201,69)"/><rect x="210" y="66" width="6" height="6" transform="rotate(0,213,69)"/><rect x="222" y="66" width="6" height="6" transform="rotate(0,225,69)"/><rect x="12" y="72" width="6" height="6" transform="rotate(0,15,75)"/><rect x="18" y="72" width="6" height="6" transform="rotate(0,21,75)"/><rect x="36" y="72" width="6" height="6" transform="rotate(0,39,75)"/><rect x="42" y="72" width="6" height="6" transform="rotate(0,45,75)"/><rect x="48" y="72" width="6" height="6" transform="rotate(0,51,75)"/><rect x="78" y="72" width="6" height="6" transform="rotate(0,81,75)"/><rect x="84" y="72" width="6" height="6" transform="rotate(0,87,75)"/><rect x="120" y="72" width="6" height="6" transform="rotate(0,123,75)"/><rect x="126" y="72" width="6" height="6" transform="rotate(0,129,75)"/><rect x="132" y="72" width="6" height="6" transform="rotate(0,135,75)"/><rect x="138" y="72" width="6" height="6" transform="rotate(0,141,75)"/><rect x="150" y="72" width="6" height="6" transform="rotate(0,153,75)"/><rect x="156" y="72" width="6" height="6" transform="rotate(0,159,75)"/><rect x="162" y="72" width="6" height="6" transform="rotate(0,165,75)"/><rect x="180" y="72" width="6" height="6" transform="rotate(0,183,75)"/><rect x="186" y="72" width="6" height="6" transform="rotate(0,189,75)"/><rect x="198" y="72" width="6" height="6" transform="rotate(0,201,75)"/><rect x="204" y="72" width="6" height="6" transform="rotate(0,207,75)"/><rect x="216" y="72" width="6" height="6" transform="rotate(0,219,75)"/><rect x="222" y="72" width="6" height="6" transform="rotate(0,225,75)"/><rect x="18" y="78" width="6" height="6" transform="rotate(0,21,81)"/><rect x="42" y="78" width="6" height="6" transform="rotate(0,45,81)"/><rect x="54" y="78" width="6" height="6" transform="rotate(0,57,81)"/><rect x="60" y="78" width="6" height="6" transform="rotate(0,63,81)"/><rect x="66" y="78" width="6" height="6" transform="rotate(0,69,81)"/><rect x="90" y="78" width="6" height="6" transform="rotate(0,93,81)"/><rect x="108" y="78" width="6" height="6" transform="rotate(0,111,81)"/><rect x="114" y="78" width="6" height="6" transform="rotate(0,117,81)"/><rect x="120" y="78" width="6" height="6" transform="rotate(0,123,81)"/><rect x="132" y="78" width="6" height="6" transform="rotate(0,135,81)"/><rect x="156" y="78" width="6" height="6" transform="rotate(0,159,81)"/><rect x="162" y="78" width="6" height="6" transform="rotate(0,165,81)"/><rect x="168" y="78" width="6" height="6" transform="rotate(0,171,81)"/><rect x="198" y="78" width="6" height="6" transform="rotate(0,201,81)"/><rect x="210" y="78" width="6" height="6" transform="rotate(0,213,81)"/><rect x="216" y="78" width="6" height="6" transform="rotate(0,219,81)"/><rect x="222" y="78" width="6" height="6" transform="rotate(0,225,81)"/><rect x="228" y="78" width="6" height="6" transform="rotate(0,231,81)"/><rect x="12" y="84" width="6" height="6" transform="rotate(0,15,87)"/><rect x="48" y="84" width="6" height="6" transform="rotate(0,51,87)"/><rect x="60" y="84" width="6" height="6" transform="rotate(0,63,87)"/><rect x="66" y="84" width="6" height="6" transform="rotate(0,69,87)"/><rect x="72" y="84" width="6" height="6" transform="rotate(0,75,87)"/><rect x="78" y="84" width="6" height="6" transform="rotate(0,81,87)"/><rect x="84" y="84" width="6" height="6" transform="rotate(0,87,87)"/><rect x="90" y="84" width="6" height="6" transform="rotate(0,93,87)"/><rect x="96" y="84" width="6" height="6" transform="rotate(0,99,87)"/><rect x="102" y="84" width="6" height="6" transform="rotate(0,105,87)"/><rect x="108" y="84" width="6" height="6" transform="rotate(0,111,87)"/><rect x="126" y="84" width="6" height="6" transform="rotate(0,129,87)"/><rect x="132" y="84" width="6" height="6" transform="rotate(0,135,87)"/><rect x="144" y="84" width="6" height="6" transform="rotate(0,147,87)"/><rect x="150" y="84" width="6" height="6" transform="rotate(0,153,87)"/><rect x="156" y="84" width="6" height="6" transform="rotate(0,159,87)"/><rect x="162" y="84" width="6" height="6" transform="rotate(0,165,87)"/><rect x="168" y="84" width="6" height="6" transform="rotate(0,171,87)"/><rect x="174" y="84" width="6" height="6" transform="rotate(0,177,87)"/><rect x="180" y="84" width="6" height="6" transform="rotate(0,183,87)"/><rect x="186" y="84" width="6" height="6" transform="rotate(0,189,87)"/><rect x="192" y="84" width="6" height="6" transform="rotate(0,195,87)"/><rect x="204" y="84" width="6" height="6" transform="rotate(0,207,87)"/><rect x="210" y="84" width="6" height="6" transform="rotate(0,213,87)"/><rect x="216" y="84" width="6" height="6" transform="rotate(0,219,87)"/><rect x="222" y="84" width="6" height="6" transform="rotate(0,225,87)"/><rect x="12" y="90" width="6" height="6" transform="rotate(0,15,93)"/><rect x="36" y="90" width="6" height="6" transform="rotate(0,39,93)"/><rect x="72" y="90" width="6" height="6" transform="rotate(0,75,93)"/><rect x="84" y="90" width="6" height="6" transform="rotate(0,87,93)"/><rect x="90" y="90" width="6" height="6" transform="rotate(0,93,93)"/><rect x="102" y="90" width="6" height="6" transform="rotate(0,105,93)"/><rect x="108" y="90" width="6" height="6" transform="rotate(0,111,93)"/><rect x="120" y="90" width="6" height="6" transform="rotate(0,123,93)"/><rect x="126" y="90" width="6" height="6" transform="rotate(0,129,93)"/><rect x="132" y="90" width="6" height="6" transform="rotate(0,135,93)"/><rect x="138" y="90" width="6" height="6" transform="rotate(0,141,93)"/><rect x="144" y="90" width="6" height="6" transform="rotate(0,147,93)"/><rect x="156" y="90" width="6" height="6" transform="rotate(0,159,93)"/><rect x="168" y="90" width="6" height="6" transform="rotate(0,171,93)"/><rect x="174" y="90" width="6" height="6" transform="rotate(0,177,93)"/><rect x="192" y="90" width="6" height="6" transform="rotate(0,195,93)"/><rect x="198" y="90" width="6" height="6" transform="rotate(0,201,93)"/><rect x="204" y="90" width="6" height="6" transform="rotate(0,207,93)"/><rect x="216" y="90" width="6" height="6" transform="rotate(0,219,93)"/><rect x="222" y="90" width="6" height="6" transform="rotate(0,225,93)"/><rect x="228" y="90" width="6" height="6" transform="rotate(0,231,93)"/><rect x="12" y="96" width="6" height="6" transform="rotate(0,15,99)"/><rect x="18" y="96" width="6" height="6" transform="rotate(0,21,99)"/><rect x="30" y="96" width="6" height="6" transform="rotate(0,33,99)"/><rect x="42" y="96" width="6" height="6" transform="rotate(0,45,99)"/><rect x="48" y="96" width="6" height="6" transform="rotate(0,51,99)"/><rect x="78" y="96" width="6" height="6" transform="rotate(0,81,99)"/><rect x="96" y="96" width="6" height="6" transform="rotate(0,99,99)"/><rect x="108" y="96" width="6" height="6" transform="rotate(0,111,99)"/><rect x="120" y="96" width="6" height="6" transform="rotate(0,123,99)"/><rect x="126" y="96" width="6" height="6" transform="rotate(0,129,99)"/><rect x="132" y="96" width="6" height="6" transform="rotate(0,135,99)"/><rect x="138" y="96" width="6" height="6" transform="rotate(0,141,99)"/><rect x="162" y="96" width="6" height="6" transform="rotate(0,165,99)"/><rect x="168" y="96" width="6" height="6" transform="rotate(0,171,99)"/><rect x="186" y="96" width="6" height="6" transform="rotate(0,189,99)"/><rect x="192" y="96" width="6" height="6" transform="rotate(0,195,99)"/><rect x="198" y="96" width="6" height="6" transform="rotate(0,201,99)"/><rect x="204" y="96" width="6" height="6" transform="rotate(0,207,99)"/><rect x="216" y="96" width="6" height="6" transform="rotate(0,219,99)"/><rect x="222" y="96" width="6" height="6" transform="rotate(0,225,99)"/><rect x="12" y="102" width="6" height="6" transform="rotate(0,15,105)"/><rect x="18" y="102" width="6" height="6" transform="rotate(0,21,105)"/><rect x="30" y="102" width="6" height="6" transform="rotate(0,33,105)"/><rect x="36" y="102" width="6" height="6" transform="rotate(0,39,105)"/><rect x="54" y="102" width="6" height="6" transform="rotate(0,57,105)"/><rect x="60" y="102" width="6" height="6" transform="rotate(0,63,105)"/><rect x="84" y="102" width="6" height="6" transform="rotate(0,87,105)"/><rect x="90" y="102" width="6" height="6" transform="rotate(0,93,105)"/><rect x="102" y="102" width="6" height="6" transform="rotate(0,105,105)"/><rect x="126" y="102" width="6" height="6" transform="rotate(0,129,105)"/><rect x="132" y="102" width="6" height="6" transform="rotate(0,135,105)"/><rect x="168" y="102" width="6" height="6" transform="rotate(0,171,105)"/><rect x="174" y="102" width="6" height="6" transform="rotate(0,177,105)"/><rect x="180" y="102" width="6" height="6" transform="rotate(0,183,105)"/><rect x="186" y="102" width="6" height="6" transform="rotate(0,189,105)"/><rect x="198" y="102" width="6" height="6" transform="rotate(0,201,105)"/><rect x="12" y="108" width="6" height="6" transform="rotate(0,15,111)"/><rect x="18" y="108" width="6" height="6" transform="rotate(0,21,111)"/><rect x="24" y="108" width="6" height="6" transform="rotate(0,27,111)"/><rect x="36" y="108" width="6" height="6" transform="rotate(0,39,111)"/><rect x="48" y="108" width="6" height="6" transform="rotate(0,51,111)"/><rect x="54" y="108" width="6" height="6" transform="rotate(0,57,111)"/><rect x="60" y="108" width="6" height="6" transform="rotate(0,63,111)"/><rect x="90" y="108" width="6" height="6" transform="rotate(0,93,111)"/><rect x="108" y="108" width="6" height="6" transform="rotate(0,111,111)"/><rect x="132" y="108" width="6" height="6" transform="rotate(0,135,111)"/><rect x="144" y="108" width="6" height="6" transform="rotate(0,147,111)"/><rect x="150" y="108" width="6" height="6" transform="rotate(0,153,111)"/><rect x="162" y="108" width="6" height="6" transform="rotate(0,165,111)"/><rect x="186" y="108" width="6" height="6" transform="rotate(0,189,111)"/><rect x="210" y="108" width="6" height="6" transform="rotate(0,213,111)"/><rect x="216" y="108" width="6" height="6" transform="rotate(0,219,111)"/><rect x="228" y="108" width="6" height="6" transform="rotate(0,231,111)"/><rect x="30" y="114" width="6" height="6" transform="rotate(0,33,117)"/><rect x="54" y="114" width="6" height="6" transform="rotate(0,57,117)"/><rect x="60" y="114" width="6" height="6" transform="rotate(0,63,117)"/><rect x="66" y="114" width="6" height="6" transform="rotate(0,69,117)"/><rect x="78" y="114" width="6" height="6" transform="rotate(0,81,117)"/><rect x="108" y="114" width="6" height="6" transform="rotate(0,111,117)"/><rect x="120" y="114" width="6" height="6" transform="rotate(0,123,117)"/><rect x="126" y="114" width="6" height="6" transform="rotate(0,129,117)"/><rect x="144" y="114" width="6" height="6" transform="rotate(0,147,117)"/><rect x="156" y="114" width="6" height="6" transform="rotate(0,159,117)"/><rect x="162" y="114" width="6" height="6" transform="rotate(0,165,117)"/><rect x="174" y="114" width="6" height="6" transform="rotate(0,177,117)"/><rect x="186" y="114" width="6" height="6" transform="rotate(0,189,117)"/><rect x="192" y="114" width="6" height="6" transform="rotate(0,195,117)"/><rect x="198" y="114" width="6" height="6" transform="rotate(0,201,117)"/><rect x="216" y="114" width="6" height="6" transform="rotate(0,219,117)"/><rect x="228" y="114" width="6" height="6" transform="rotate(0,231,117)"/><rect x="12" y="120" width="6" height="6" transform="rotate(0,15,123)"/><rect x="30" y="120" width="6" height="6" transform="rotate(0,33,123)"/><rect x="36" y="120" width="6" height="6" transform="rotate(0,39,123)"/><rect x="48" y="120" width="6" height="6" transform="rotate(0,51,123)"/><rect x="72" y="120" width="6" height="6" transform="rotate(0,75,123)"/><rect x="78" y="120" width="6" height="6" transform="rotate(0,81,123)"/><rect x="84" y="120" width="6" height="6" transform="rotate(0,87,123)"/><rect x="96" y="120" width="6" height="6" transform="rotate(0,99,123)"/><rect x="102" y="120" width="6" height="6" transform="rotate(0,105,123)"/><rect x="108" y="120" width="6" height="6" transform="rotate(0,111,123)"/><rect x="120" y="120" width="6" height="6" transform="rotate(0,123,123)"/><rect x="126" y="120" width="6" height="6" transform="rotate(0,129,123)"/><rect x="132" y="120" width="6" height="6" transform="rotate(0,135,123)"/><rect x="138" y="120" width="6" height="6" transform="rotate(0,141,123)"/><rect x="144" y="120" width="6" height="6" transform="rotate(0,147,123)"/><rect x="150" y="120" width="6" height="6" transform="rotate(0,153,123)"/><rect x="156" y="120" width="6" height="6" transform="rotate(0,159,123)"/><rect x="174" y="120" width="6" height="6" transform="rotate(0,177,123)"/><rect x="186" y="120" width="6" height="6" transform="rotate(0,189,123)"/><rect x="192" y="120" width="6" height="6" transform="rotate(0,195,123)"/><rect x="198" y="120" width="6" height="6" transform="rotate(0,201,123)"/><rect x="216" y="120" width="6" height="6" transform="rotate(0,219,123)"/><rect x="222" y="120" width="6" height="6" transform="rotate(0,225,123)"/><rect x="228" y="120" width="6" height="6" transform="rotate(0,231,123)"/><rect x="12" y="126" width="6" height="6" transform="rotate(0,15,129)"/><rect x="24" y="126" width="6" height="6" transform="rotate(0,27,129)"/><rect x="30" y="126" width="6" height="6" transform="rotate(0,33,129)"/><rect x="42" y="126" width="6" height="6" transform="rotate(0,45,129)"/><rect x="54" y="126" width="6" height="6" transform="rotate(0,57,129)"/><rect x="60" y="126" width="6" height="6" transform="rotate(0,63,129)"/><rect x="72" y="126" width="6" height="6" transform="rotate(0,75,129)"/><rect x="78" y="126" width="6" height="6" transform="rotate(0,81,129)"/><rect x="84" y="126" width="6" height="6" transform="rotate(0,87,129)"/><rect x="96" y="126" width="6" height="6" transform="rotate(0,99,129)"/><rect x="102" y="126" width="6" height="6" transform="rotate(0,105,129)"/><rect x="114" y="126" width="6" height="6" transform="rotate(0,117,129)"/><rect x="120" y="126" width="6" height="6" transform="rotate(0,123,129)"/><rect x="132" y="126" width="6" height="6" transform="rotate(0,135,129)"/><rect x="144" y="126" width="6" height="6" transform="rotate(0,147,129)"/><rect x="156" y="126" width="6" height="6" transform="rotate(0,159,129)"/><rect x="168" y="126" width="6" height="6" transform="rotate(0,171,129)"/><rect x="198" y="126" width="6" height="6" transform="rotate(0,201,129)"/><rect x="210" y="126" width="6" height="6" transform="rotate(0,213,129)"/><rect x="12" y="132" width="6" height="6" transform="rotate(0,15,135)"/><rect x="24" y="132" width="6" height="6" transform="rotate(0,27,135)"/><rect x="36" y="132" width="6" height="6" transform="rotate(0,39,135)"/><rect x="48" y="132" width="6" height="6" transform="rotate(0,51,135)"/><rect x="54" y="132" width="6" height="6" transform="rotate(0,57,135)"/><rect x="72" y="132" width="6" height="6" transform="rotate(0,75,135)"/><rect x="84" y="132" width="6" height="6" transform="rotate(0,87,135)"/><rect x="90" y="132" width="6" height="6" transform="rotate(0,93,135)"/><rect x="102" y="132" width="6" height="6" transform="rotate(0,105,135)"/><rect x="120" y="132" width="6" height="6" transform="rotate(0,123,135)"/><rect x="126" y="132" width="6" height="6" transform="rotate(0,129,135)"/><rect x="132" y="132" width="6" height="6" transform="rotate(0,135,135)"/><rect x="138" y="132" width="6" height="6" transform="rotate(0,141,135)"/><rect x="150" y="132" width="6" height="6" transform="rotate(0,153,135)"/><rect x="156" y="132" width="6" height="6" transform="rotate(0,159,135)"/><rect x="174" y="132" width="6" height="6" transform="rotate(0,177,135)"/><rect x="180" y="132" width="6" height="6" transform="rotate(0,183,135)"/><rect x="186" y="132" width="6" height="6" transform="rotate(0,189,135)"/><rect x="204" y="132" width="6" height="6" transform="rotate(0,207,135)"/><rect x="222" y="132" width="6" height="6" transform="rotate(0,225,135)"/><rect x="18" y="138" width="6" height="6" transform="rotate(0,21,141)"/><rect x="24" y="138" width="6" height="6" transform="rotate(0,27,141)"/><rect x="30" y="138" width="6" height="6" transform="rotate(0,33,141)"/><rect x="36" y="138" width="6" height="6" transform="rotate(0,39,141)"/><rect x="42" y="138" width="6" height="6" transform="rotate(0,45,141)"/><rect x="54" y="138" width="6" height="6" transform="rotate(0,57,141)"/><rect x="66" y="138" width="6" height="6" transform="rotate(0,69,141)"/><rect x="90" y="138" width="6" height="6" transform="rotate(0,93,141)"/><rect x="96" y="138" width="6" height="6" transform="rotate(0,99,141)"/><rect x="102" y="138" width="6" height="6" transform="rotate(0,105,141)"/><rect x="114" y="138" width="6" height="6" transform="rotate(0,117,141)"/><rect x="120" y="138" width="6" height="6" transform="rotate(0,123,141)"/><rect x="162" y="138" width="6" height="6" transform="rotate(0,165,141)"/><rect x="168" y="138" width="6" height="6" transform="rotate(0,171,141)"/><rect x="198" y="138" width="6" height="6" transform="rotate(0,201,141)"/><rect x="210" y="138" width="6" height="6" transform="rotate(0,213,141)"/><rect x="12" y="144" width="6" height="6" transform="rotate(0,15,147)"/><rect x="24" y="144" width="6" height="6" transform="rotate(0,27,147)"/><rect x="36" y="144" width="6" height="6" transform="rotate(0,39,147)"/><rect x="48" y="144" width="6" height="6" transform="rotate(0,51,147)"/><rect x="60" y="144" width="6" height="6" transform="rotate(0,63,147)"/><rect x="66" y="144" width="6" height="6" transform="rotate(0,69,147)"/><rect x="90" y="144" width="6" height="6" transform="rotate(0,93,147)"/><rect x="102" y="144" width="6" height="6" transform="rotate(0,105,147)"/><rect x="114" y="144" width="6" height="6" transform="rotate(0,117,147)"/><rect x="120" y="144" width="6" height="6" transform="rotate(0,123,147)"/><rect x="132" y="144" width="6" height="6" transform="rotate(0,135,147)"/><rect x="138" y="144" width="6" height="6" transform="rotate(0,141,147)"/><rect x="144" y="144" width="6" height="6" transform="rotate(0,147,147)"/><rect x="150" y="144" width="6" height="6" transform="rotate(0,153,147)"/><rect x="162" y="144" width="6" height="6" transform="rotate(0,165,147)"/><rect x="186" y="144" width="6" height="6" transform="rotate(0,189,147)"/><rect x="204" y="144" width="6" height="6" transform="rotate(0,207,147)"/><rect x="24" y="150" width="6" height="6" transform="rotate(0,27,153)"/><rect x="36" y="150" width="6" height="6" transform="rotate(0,39,153)"/><rect x="66" y="150" width="6" height="6" transform="rotate(0,69,153)"/><rect x="78" y="150" width="6" height="6" transform="rotate(0,81,153)"/><rect x="84" y="150" width="6" height="6" transform="rotate(0,87,153)"/><rect x="96" y="150" width="6" height="6" transform="rotate(0,99,153)"/><rect x="120" y="150" width="6" height="6" transform="rotate(0,123,153)"/><rect x="126" y="150" width="6" height="6" transform="rotate(0,129,153)"/><rect x="150" y="150" width="6" height="6" transform="rotate(0,153,153)"/><rect x="174" y="150" width="6" height="6" transform="rotate(0,177,153)"/><rect x="180" y="150" width="6" height="6" transform="rotate(0,183,153)"/><rect x="192" y="150" width="6" height="6" transform="rotate(0,195,153)"/><rect x="210" y="150" width="6" height="6" transform="rotate(0,213,153)"/><rect x="216" y="150" width="6" height="6" transform="rotate(0,219,153)"/><rect x="222" y="150" width="6" height="6" transform="rotate(0,225,153)"/><rect x="228" y="150" width="6" height="6" transform="rotate(0,231,153)"/><rect x="18" y="156" width="6" height="6" transform="rotate(0,21,159)"/><rect x="30" y="156" width="6" height="6" transform="rotate(0,33,159)"/><rect x="36" y="156" width="6" height="6" transform="rotate(0,39,159)"/><rect x="48" y="156" width="6" height="6" transform="rotate(0,51,159)"/><rect x="54" y="156" width="6" height="6" transform="rotate(0,57,159)"/><rect x="60" y="156" width="6" height="6" transform="rotate(0,63,159)"/><rect x="96" y="156" width="6" height="6" transform="rotate(0,99,159)"/><rect x="102" y="156" width="6" height="6" transform="rotate(0,105,159)"/><rect x="114" y="156" width="6" height="6" transform="rotate(0,117,159)"/><rect x="120" y="156" width="6" height="6" transform="rotate(0,123,159)"/><rect x="144" y="156" width="6" height="6" transform="rotate(0,147,159)"/><rect x="156" y="156" width="6" height="6" transform="rotate(0,159,159)"/><rect x="168" y="156" width="6" height="6" transform="rotate(0,171,159)"/><rect x="186" y="156" width="6" height="6" transform="rotate(0,189,159)"/><rect x="192" y="156" width="6" height="6" transform="rotate(0,195,159)"/><rect x="204" y="156" width="6" height="6" transform="rotate(0,207,159)"/><rect x="216" y="156" width="6" height="6" transform="rotate(0,219,159)"/><rect x="222" y="156" width="6" height="6" transform="rotate(0,225,159)"/><rect x="24" y="162" width="6" height="6" transform="rotate(0,27,165)"/><rect x="42" y="162" width="6" height="6" transform="rotate(0,45,165)"/><rect x="84" y="162" width="6" height="6" transform="rotate(0,87,165)"/><rect x="90" y="162" width="6" height="6" transform="rotate(0,93,165)"/><rect x="96" y="162" width="6" height="6" transform="rotate(0,99,165)"/><rect x="108" y="162" width="6" height="6" transform="rotate(0,111,165)"/><rect x="114" y="162" width="6" height="6" transform="rotate(0,117,165)"/><rect x="120" y="162" width="6" height="6" transform="rotate(0,123,165)"/><rect x="126" y="162" width="6" height="6" transform="rotate(0,129,165)"/><rect x="168" y="162" width="6" height="6" transform="rotate(0,171,165)"/><rect x="174" y="162" width="6" height="6" transform="rotate(0,177,165)"/><rect x="180" y="162" width="6" height="6" transform="rotate(0,183,165)"/><rect x="186" y="162" width="6" height="6" transform="rotate(0,189,165)"/><rect x="192" y="162" width="6" height="6" transform="rotate(0,195,165)"/><rect x="198" y="162" width="6" height="6" transform="rotate(0,201,165)"/><rect x="204" y="162" width="6" height="6" transform="rotate(0,207,165)"/><rect x="216" y="162" width="6" height="6" transform="rotate(0,219,165)"/><rect x="222" y="162" width="6" height="6" transform="rotate(0,225,165)"/><rect x="228" y="162" width="6" height="6" transform="rotate(0,231,165)"/><rect x="18" y="168" width="6" height="6" transform="rotate(0,21,171)"/><rect x="24" y="168" width="6" height="6" transform="rotate(0,27,171)"/><rect x="36" y="168" width="6" height="6" transform="rotate(0,39,171)"/><rect x="48" y="168" width="6" height="6" transform="rotate(0,51,171)"/><rect x="54" y="168" width="6" height="6" transform="rotate(0,57,171)"/><rect x="60" y="168" width="6" height="6" transform="rotate(0,63,171)"/><rect x="72" y="168" width="6" height="6" transform="rotate(0,75,171)"/><rect x="78" y="168" width="6" height="6" transform="rotate(0,81,171)"/><rect x="96" y="168" width="6" height="6" transform="rotate(0,99,171)"/><rect x="108" y="168" width="6" height="6" transform="rotate(0,111,171)"/><rect x="126" y="168" width="6" height="6" transform="rotate(0,129,171)"/><rect x="156" y="168" width="6" height="6" transform="rotate(0,159,171)"/><rect x="168" y="168" width="6" height="6" transform="rotate(0,171,171)"/><rect x="198" y="168" width="6" height="6" transform="rotate(0,201,171)"/><rect x="204" y="168" width="6" height="6" transform="rotate(0,207,171)"/><rect x="210" y="168" width="6" height="6" transform="rotate(0,213,171)"/><rect x="216" y="168" width="6" height="6" transform="rotate(0,219,171)"/><rect x="12" y="174" width="6" height="6" transform="rotate(0,15,177)"/><rect x="30" y="174" width="6" height="6" transform="rotate(0,33,177)"/><rect x="36" y="174" width="6" height="6" transform="rotate(0,39,177)"/><rect x="60" y="174" width="6" height="6" transform="rotate(0,63,177)"/><rect x="72" y="174" width="6" height="6" transform="rotate(0,75,177)"/><rect x="90" y="174" width="6" height="6" transform="rotate(0,93,177)"/><rect x="102" y="174" width="6" height="6" transform="rotate(0,105,177)"/><rect x="108" y="174" width="6" height="6" transform="rotate(0,111,177)"/><rect x="114" y="174" width="6" height="6" transform="rotate(0,117,177)"/><rect x="132" y="174" width="6" height="6" transform="rotate(0,135,177)"/><rect x="138" y="174" width="6" height="6" transform="rotate(0,141,177)"/><rect x="168" y="174" width="6" height="6" transform="rotate(0,171,177)"/><rect x="174" y="174" width="6" height="6" transform="rotate(0,177,177)"/><rect x="186" y="174" width="6" height="6" transform="rotate(0,189,177)"/><rect x="198" y="174" width="6" height="6" transform="rotate(0,201,177)"/><rect x="204" y="174" width="6" height="6" transform="rotate(0,207,177)"/><rect x="222" y="174" width="6" height="6" transform="rotate(0,225,177)"/><rect x="228" y="174" width="6" height="6" transform="rotate(0,231,177)"/><rect x="24" y="180" width="6" height="6" transform="rotate(0,27,183)"/><rect x="36" y="180" width="6" height="6" transform="rotate(0,39,183)"/><rect x="42" y="180" width="6" height="6" transform="rotate(0,45,183)"/><rect x="48" y="180" width="6" height="6" transform="rotate(0,51,183)"/><rect x="54" y="180" width="6" height="6" transform="rotate(0,57,183)"/><rect x="66" y="180" width="6" height="6" transform="rotate(0,69,183)"/><rect x="78" y="180" width="6" height="6" transform="rotate(0,81,183)"/><rect x="102" y="180" width="6" height="6" transform="rotate(0,105,183)"/><rect x="114" y="180" width="6" height="6" transform="rotate(0,117,183)"/><rect x="120" y="180" width="6" height="6" transform="rotate(0,123,183)"/><rect x="126" y="180" width="6" height="6" transform="rotate(0,129,183)"/><rect x="132" y="180" width="6" height="6" transform="rotate(0,135,183)"/><rect x="138" y="180" width="6" height="6" transform="rotate(0,141,183)"/><rect x="144" y="180" width="6" height="6" transform="rotate(0,147,183)"/><rect x="150" y="180" width="6" height="6" transform="rotate(0,153,183)"/><rect x="156" y="180" width="6" height="6" transform="rotate(0,159,183)"/><rect x="162" y="180" width="6" height="6" transform="rotate(0,165,183)"/><rect x="174" y="180" width="6" height="6" transform="rotate(0,177,183)"/><rect x="180" y="180" width="6" height="6" transform="rotate(0,183,183)"/><rect x="186" y="180" width="6" height="6" transform="rotate(0,189,183)"/><rect x="192" y="180" width="6" height="6" transform="rotate(0,195,183)"/><rect x="198" y="180" width="6" height="6" transform="rotate(0,201,183)"/><rect x="204" y="180" width="6" height="6" transform="rotate(0,207,183)"/><rect x="216" y="180" width="6" height="6" transform="rotate(0,219,183)"/><rect x="228" y="180" width="6" height="6" transform="rotate(0,231,183)"/><rect x="60" y="186" width="6" height="6" transform="rotate(0,63,189)"/><rect x="66" y="186" width="6" height="6" transform="rotate(0,69,189)"/><rect x="72" y="186" width="6" height="6" transform="rotate(0,75,189)"/><rect x="102" y="186" width="6" height="6" transform="rotate(0,105,189)"/><rect x="108" y="186" width="6" height="6" transform="rotate(0,111,189)"/><rect x="114" y="186" width="6" height="6" transform="rotate(0,117,189)"/><rect x="120" y="186" width="6" height="6" transform="rotate(0,123,189)"/><rect x="144" y="186" width="6" height="6" transform="rotate(0,147,189)"/><rect x="150" y="186" width="6" height="6" transform="rotate(0,153,189)"/><rect x="156" y="186" width="6" height="6" transform="rotate(0,159,189)"/><rect x="162" y="186" width="6" height="6" transform="rotate(0,165,189)"/><rect x="180" y="186" width="6" height="6" transform="rotate(0,183,189)"/><rect x="204" y="186" width="6" height="6" transform="rotate(0,207,189)"/><rect x="210" y="186" width="6" height="6" transform="rotate(0,213,189)"/><rect x="216" y="186" width="6" height="6" transform="rotate(0,219,189)"/><rect x="228" y="186" width="6" height="6" transform="rotate(0,231,189)"/><rect x="84" y="192" width="6" height="6" transform="rotate(0,87,195)"/><rect x="96" y="192" width="6" height="6" transform="rotate(0,99,195)"/><rect x="102" y="192" width="6" height="6" transform="rotate(0,105,195)"/><rect x="114" y="192" width="6" height="6" transform="rotate(0,117,195)"/><rect x="120" y="192" width="6" height="6" transform="rotate(0,123,195)"/><rect x="138" y="192" width="6" height="6" transform="rotate(0,141,195)"/><rect x="162" y="192" width="6" height="6" transform="rotate(0,165,195)"/><rect x="168" y="192" width="6" height="6" transform="rotate(0,171,195)"/><rect x="180" y="192" width="6" height="6" transform="rotate(0,183,195)"/><rect x="192" y="192" width="6" height="6" transform="rotate(0,195,195)"/><rect x="204" y="192" width="6" height="6" transform="rotate(0,207,195)"/><rect x="210" y="192" width="6" height="6" transform="rotate(0,213,195)"/><rect x="228" y="192" width="6" height="6" transform="rotate(0,231,195)"/><rect x="60" y="198" width="6" height="6" transform="rotate(0,63,201)"/><rect x="78" y="198" width="6" height="6" transform="rotate(0,81,201)"/><rect x="84" y="198" width="6" height="6" transform="rotate(0,87,201)"/><rect x="90" y="198" width="6" height="6" transform="rotate(0,93,201)"/><rect x="108" y="198" width="6" height="6" transform="rotate(0,111,201)"/><rect x="126" y="198" width="6" height="6" transform="rotate(0,129,201)"/><rect x="144" y="198" width="6" height="6" transform="rotate(0,147,201)"/><rect x="150" y="198" width="6" height="6" transform="rotate(0,153,201)"/><rect x="168" y="198" width="6" height="6" transform="rotate(0,171,201)"/><rect x="174" y="198" width="6" height="6" transform="rotate(0,177,201)"/><rect x="180" y="198" width="6" height="6" transform="rotate(0,183,201)"/><rect x="204" y="198" width="6" height="6" transform="rotate(0,207,201)"/><rect x="210" y="198" width="6" height="6" transform="rotate(0,213,201)"/><rect x="222" y="198" width="6" height="6" transform="rotate(0,225,201)"/><rect x="228" y="198" width="6" height="6" transform="rotate(0,231,201)"/><rect x="78" y="204" width="6" height="6" transform="rotate(0,81,207)"/><rect x="96" y="204" width="6" height="6" transform="rotate(0,99,207)"/><rect x="126" y="204" width="6" height="6" transform="rotate(0,129,207)"/><rect x="144" y="204" width="6" height="6" transform="rotate(0,147,207)"/><rect x="150" y="204" width="6" height="6" transform="rotate(0,153,207)"/><rect x="156" y="204" width="6" height="6" transform="rotate(0,159,207)"/><rect x="168" y="204" width="6" height="6" transform="rotate(0,171,207)"/><rect x="180" y="204" width="6" height="6" transform="rotate(0,183,207)"/><rect x="186" y="204" width="6" height="6" transform="rotate(0,189,207)"/><rect x="192" y="204" width="6" height="6" transform="rotate(0,195,207)"/><rect x="198" y="204" width="6" height="6" transform="rotate(0,201,207)"/><rect x="204" y="204" width="6" height="6" transform="rotate(0,207,207)"/><rect x="210" y="204" width="6" height="6" transform="rotate(0,213,207)"/><rect x="60" y="210" width="6" height="6" transform="rotate(0,63,213)"/><rect x="66" y="210" width="6" height="6" transform="rotate(0,69,213)"/><rect x="72" y="210" width="6" height="6" transform="rotate(0,75,213)"/><rect x="96" y="210" width="6" height="6" transform="rotate(0,99,213)"/><rect x="102" y="210" width="6" height="6" transform="rotate(0,105,213)"/><rect x="114" y="210" width="6" height="6" transform="rotate(0,117,213)"/><rect x="120" y="210" width="6" height="6" transform="rotate(0,123,213)"/><rect x="132" y="210" width="6" height="6" transform="rotate(0,135,213)"/><rect x="138" y="210" width="6" height="6" transform="rotate(0,141,213)"/><rect x="144" y="210" width="6" height="6" transform="rotate(0,147,213)"/><rect x="156" y="210" width="6" height="6" transform="rotate(0,159,213)"/><rect x="174" y="210" width="6" height="6" transform="rotate(0,177,213)"/><rect x="180" y="210" width="6" height="6" transform="rotate(0,183,213)"/><rect x="192" y="210" width="6" height="6" transform="rotate(0,195,213)"/><rect x="204" y="210" width="6" height="6" transform="rotate(0,207,213)"/><rect x="216" y="210" width="6" height="6" transform="rotate(0,219,213)"/><rect x="222" y="210" width="6" height="6" transform="rotate(0,225,213)"/><rect x="60" y="216" width="6" height="6" transform="rotate(0,63,219)"/><rect x="72" y="216" width="6" height="6" transform="rotate(0,75,219)"/><rect x="78" y="216" width="6" height="6" transform="rotate(0,81,219)"/><rect x="90" y="216" width="6" height="6" transform="rotate(0,93,219)"/><rect x="96" y="216" width="6" height="6" transform="rotate(0,99,219)"/><rect x="108" y="216" width="6" height="6" transform="rotate(0,111,219)"/><rect x="126" y="216" width="6" height="6" transform="rotate(0,129,219)"/><rect x="132" y="216" width="6" height="6" transform="rotate(0,135,219)"/><rect x="138" y="216" width="6" height="6" transform="rotate(0,141,219)"/><rect x="144" y="216" width="6" height="6" transform="rotate(0,147,219)"/><rect x="150" y="216" width="6" height="6" transform="rotate(0,153,219)"/><rect x="156" y="216" width="6" height="6" transform="rotate(0,159,219)"/><rect x="168" y="216" width="6" height="6" transform="rotate(0,171,219)"/><rect x="174" y="216" width="6" height="6" transform="rotate(0,177,219)"/><rect x="192" y="216" width="6" height="6" transform="rotate(0,195,219)"/><rect x="198" y="216" width="6" height="6" transform="rotate(0,201,219)"/><rect x="204" y="216" width="6" height="6" transform="rotate(0,207,219)"/><rect x="210" y="216" width="6" height="6" transform="rotate(0,213,219)"/><rect x="216" y="216" width="6" height="6" transform="rotate(0,219,219)"/><rect x="222" y="216" width="6" height="6" transform="rotate(0,225,219)"/><rect x="60" y="222" width="6" height="6" transform="rotate(0,63,225)"/><rect x="66" y="222" width="6" height="6" transform="rotate(0,69,225)"/><rect x="72" y="222" width="6" height="6" transform="rotate(0,75,225)"/><rect x="78" y="222" width="6" height="6" transform="rotate(0,81,225)"/><rect x="84" y="222" width="6" height="6" transform="rotate(0,87,225)"/><rect x="90" y="222" width="6" height="6" transform="rotate(0,93,225)"/><rect x="108" y="222" width="6" height="6" transform="rotate(0,111,225)"/><rect x="114" y="222" width="6" height="6" transform="rotate(0,117,225)"/><rect x="132" y="222" width="6" height="6" transform="rotate(0,135,225)"/><rect x="144" y="222" width="6" height="6" transform="rotate(0,147,225)"/><rect x="162" y="222" width="6" height="6" transform="rotate(0,165,225)"/><rect x="174" y="222" width="6" height="6" transform="rotate(0,177,225)"/><rect x="198" y="222" width="6" height="6" transform="rotate(0,201,225)"/><rect x="210" y="222" width="6" height="6" transform="rotate(0,213,225)"/><rect x="216" y="222" width="6" height="6" transform="rotate(0,219,225)"/><rect x="66" y="228" width="6" height="6" transform="rotate(0,69,231)"/><rect x="78" y="228" width="6" height="6" transform="rotate(0,81,231)"/><rect x="84" y="228" width="6" height="6" transform="rotate(0,87,231)"/><rect x="96" y="228" width="6" height="6" transform="rotate(0,99,231)"/><rect x="102" y="228" width="6" height="6" transform="rotate(0,105,231)"/><rect x="120" y="228" width="6" height="6" transform="rotate(0,123,231)"/><rect x="126" y="228" width="6" height="6" transform="rotate(0,129,231)"/><rect x="132" y="228" width="6" height="6" transform="rotate(0,135,231)"/><rect x="138" y="228" width="6" height="6" transform="rotate(0,141,231)"/><rect x="144" y="228" width="6" height="6" transform="rotate(0,147,231)"/><rect x="162" y="228" width="6" height="6" transform="rotate(0,165,231)"/><rect x="192" y="228" width="6" height="6" transform="rotate(0,195,231)"/><rect x="204" y="228" width="6" height="6" transform="rotate(0,207,231)"/><rect x="210" y="228" width="6" height="6" transform="rotate(0,213,231)"/><rect x="216" y="228" width="6" height="6" transform="rotate(0,219,231)"/><rect x="222" y="228" width="6" height="6" transform="rotate(0,225,231)"/><rect x="228" y="228" width="6" height="6" transform="rotate(0,231,231)"/></g></svg>