<?xml version="1.0" encoding="utf-8"?><!DOCTYPE svg PUBLIC "-//W3C//DTD SVG 1.1//EN" "http://www.w3.org/Graphics/SVG/1.1/DTD/svg11.dtd"><svg xmlns:xlink="http://www.w3.org/1999/xlink" xmlns="http://www.w3.org/2000/svg" id="map" viewBox="0 0 222 222" width="1000" height="1000" data-dot="6"><rect x="0" y="0" height="222" width="222" fill="#ffffff" style="--darkreader-inline-fill: var(--darkreader-background-ffffff, #181a1b);" data-darkreader-inline-fill=""/><defs/><g fill="#000000" style="--darkreader-inline-fill: var(--darkreader-background-000000, #000000);" data-darkreader-inline-fill=""><rect x="24" y="180" width="18" height="18" transform="rotate(-90,33,189)"/><path clip-rule="evenodd" class="svgeye" d="M 12 168v 42h 42v -42zM 18 174h 30v 30h -30z" transform="rotate(-90,33,189)"/><rect x="180" y="24" width="18" height="18" transform="rotate(90,189,33)"/><path clip-rule="evenodd" class="svgeye" d="M 168 12v 42h 42v -42zM 174 18h 30v 30h -30z" transform="rotate(90,189,33)"/><rect x="24" y="24" width="18" height="18" transform="rotate(0,33,33)"/><path clip-rule="evenodd" class="svgeye" d="M 12 12v 42h 42v -42zM 18 18h 30v 30h -30z" transform="rotate(0,33,33)"/><rect x="60" y="12" width="6" height="6" transform="rotate(0,63,15)"/><rect x="72" y="12" width="6" height="6" transform="rotate(0,75,15)"/><rect x="78" y="12" width="6" height="6" transform="rotate(0,81,15)"/><rect x="90" y="12" width="6" height="6" transform="rotate(0,93,15)"/><rect x="102" y="12" width="6" height="6" transform="rotate(0,105,15)"/><rect x="120" y="12" width="6" height="6" transform="rotate(0,123,15)"/><rect x="132" y="12" width="6" height="6" transform="rotate(0,135,15)"/><rect x="138" y="12" width="6" height="6" transform="rotate(0,141,15)"/><rect x="144" y="12" width="6" height="6" transform="rotate(0,147,15)"/><rect x="60" y="18" width="6" height="6" transform="rotate(0,63,21)"/><rect x="96" y="18" width="6" height="6" transform="rotate(0,99,21)"/><rect x="102" y="18" width="6" height="6" transform="rotate(0,105,21)"/><rect x="114" y="18" width="6" height="6" transform="rotate(0,117,21)"/><rect x="132" y="18" width="6" height="6" transform="rotate(0,135,21)"/><rect x="144" y="18" width="6" height="6" transform="rotate(0,147,21)"/><rect x="66" y="24" width="6" height="6" transform="rotate(0,69,27)"/><rect x="78" y="24" width="6" height="6" transform="rotate(0,81,27)"/><rect x="90" y="24" width="6" height="6" transform="rotate(0,93,27)"/><rect x="102" y="24" width="6" height="6" transform="rotate(0,105,27)"/><rect x="114" y="24" width="6" height="6" transform="rotate(0,117,27)"/><rect x="120" y="24" width="6" height="6" transform="rotate(0,123,27)"/><rect x="138" y="24" width="6" height="6" transform="rotate(0,141,27)"/><rect x="144" y="24" width="6" height="6" transform="rotate(0,147,27)"/><rect x="156" y="24" width="6" height="6" transform="rotate(0,159,27)"/><rect x="72" y="30" width="6" height="6" transform="rotate(0,75,33)"/><rect x="78" y="30" width="6" height="6" transform="rotate(0,81,33)"/><rect x="90" y="30" width="6" height="6" transform="rotate(0,93,33)"/><rect x="108" y="30" width="6" height="6" transform="rotate(0,111,33)"/><rect x="126" y="30" width="6" height="6" transform="rotate(0,129,33)"/><rect x="138" y="30" width="6" height="6" transform="rotate(0,141,33)"/><rect x="150" y="30" width="6" height="6" transform="rotate(0,153,33)"/><rect x="78" y="36" width="6" height="6" transform="rotate(0,81,39)"/><rect x="84" y="36" width="6" height="6" transform="rotate(0,87,39)"/><rect x="96" y="36" width="6" height="6" transform="rotate(0,99,39)"/><rect x="108" y="36" width="6" height="6" transform="rotate(0,111,39)"/><rect x="114" y="36" width="6" height="6" transform="rotate(0,117,39)"/><rect x="120" y="36" width="6" height="6" transform="rotate(0,123,39)"/><rect x="138" y="36" width="6" height="6" transform="rotate(0,141,39)"/><rect x="144" y="36" width="6" height="6" transform="rotate(0,147,39)"/><rect x="150" y="36" width="6" height="6" transform="rotate(0,153,39)"/><rect x="72" y="42" width="6" height="6" transform="rotate(0,75,45)"/><rect x="78" y="42" width="6" height="6" transform="rotate(0,81,45)"/><rect x="96" y="42" width="6" height="6" transform="rotate(0,99,45)"/><rect x="108" y="42" width="6" height="6" transform="rotate(0,111,45)"/><rect x="114" y="42" width="6" height="6" transform="rotate(0,117,45)"/><rect x="132" y="42" width="6" height="6" transform="rotate(0,135,45)"/><rect x="144" y="42" width="6" height="6" transform="rotate(0,147,45)"/><rect x="156" y="42" width="6" height="6" transform="rotate(0,159,45)"/><rect x="60" y="48" width="6" height="6" transform="rotate(0,63,51)"/><rect x="72" y="48" width="6" height="6" transform="rotate(0,75,51)"/><rect x="84" y="48" width="6" height="6" transform="rotate(0,87,51)"/><rect x="96" y="48" width="6" height="6" transform="rotate(0,99,51)"/><rect x="108" y="48" width="6" height="6" transform="rotate(0,111,51)"/><rect x="120" y="48" width="6" height="6" transform="rotate(0,123,51)"/><rect x="132" y="48" width="6" height="6" transform="rotate(0,135,51)"/><rect x="144" y="48" width="6" height="6" transform="rotate(0,147,51)"/><rect x="156" y="48" width="6" height="6" transform="rotate(0,159,51)"/><rect x="66" y="54" width="6" height="6" transform="rotate(0,69,57)"/><rect x="78" y="54" width="6" height="6" transform="rotate(0,81,57)"/><rect x="84" y="54" width="6" height="6" transform="rotate(0,87,57)"/><rect x="96" y="54" width="6" height="6" transform="rotate(0,99,57)"/><rect x="102" y="54" width="6" height="6" transform="rotate(0,105,57)"/><rect x="144" y="54" width="6" height="6" transform="rotate(0,147,57)"/><rect x="150" y="54" width="6" height="6" transform="rotate(0,153,57)"/><rect x="156" y="54" width="6" height="6" transform="rotate(0,159,57)"/><rect x="18" y="60" width="6" height="6" transform="rotate(0,21,63)"/><rect x="48" y="60" width="6" height="6" transform="rotate(0,51,63)"/><rect x="54" y="60" width="6" height="6" transform="rotate(0,57,63)"/><rect x="60" y="60" width="6" height="6" transform="rotate(0,63,63)"/><rect x="78" y="60" width="6" height="6" transform="rotate(0,81,63)"/><rect x="84" y="60" width="6" height="6" transform="rotate(0,87,63)"/><rect x="90" y="60" width="6" height="6" transform="rotate(0,93,63)"/><rect x="96" y="60" width="6" height="6" transform="rotate(0,99,63)"/><rect x="114" y="60" width="6" height="6" transform="rotate(0,117,63)"/><rect x="132" y="60" width="6" height="6" transform="rotate(0,135,63)"/><rect x="156" y="60" width="6" height="6" transform="rotate(0,159,63)"/><rect x="162" y="60" width="6" height="6" transform="rotate(0,165,63)"/><rect x="198" y="60" width="6" height="6" transform="rotate(0,201,63)"/><rect x="204" y="60" width="6" height="6" transform="rotate(0,207,63)"/><rect x="12" y="66" width="6" height="6" transform="rotate(0,15,69)"/><rect x="18" y="66" width="6" height="6" transform="rotate(0,21,69)"/><rect x="42" y="66" width="6" height="6" transform="rotate(0,45,69)"/><rect x="54" y="66" width="6" height="6" transform="rotate(0,57,69)"/><rect x="60" y="66" width="6" height="6" transform="rotate(0,63,69)"/><rect x="84" y="66" width="6" height="6" transform="rotate(0,87,69)"/><rect x="96" y="66" width="6" height="6" transform="rotate(0,99,69)"/><rect x="108" y="66" width="6" height="6" transform="rotate(0,111,69)"/><rect x="120" y="66" width="6" height="6" transform="rotate(0,123,69)"/><rect x="126" y="66" width="6" height="6" transform="rotate(0,129,69)"/><rect x="144" y="66" width="6" height="6" transform="rotate(0,147,69)"/><rect x="150" y="66" width="6" height="6" transform="rotate(0,153,69)"/><rect x="180" y="66" width="6" height="6" transform="rotate(0,183,69)"/><rect x="186" y="66" width="6" height="6" transform="rotate(0,189,69)"/><rect x="192" y="66" width="6" height="6" transform="rotate(0,195,69)"/><rect x="18" y="72" width="6" height="6" transform="rotate(0,21,75)"/><rect x="24" y="72" width="6" height="6" transform="rotate(0,27,75)"/><rect x="30" y="72" width="6" height="6" transform="rotate(0,33,75)"/><rect x="48" y="72" width="6" height="6" transform="rotate(0,51,75)"/><rect x="54" y="72" width="6" height="6" transform="rotate(0,57,75)"/><rect x="66" y="72" width="6" height="6" transform="rotate(0,69,75)"/><rect x="102" y="72" width="6" height="6" transform="rotate(0,105,75)"/><rect x="120" y="72" width="6" height="6" transform="rotate(0,123,75)"/><rect x="132" y="72" width="6" height="6" transform="rotate(0,135,75)"/><rect x="144" y="72" width="6" height="6" transform="rotate(0,147,75)"/><rect x="162" y="72" width="6" height="6" transform="rotate(0,165,75)"/><rect x="168" y="72" width="6" height="6" transform="rotate(0,171,75)"/><rect x="180" y="72" width="6" height="6" transform="rotate(0,183,75)"/><rect x="192" y="72" width="6" height="6" transform="rotate(0,195,75)"/><rect x="198" y="72" width="6" height="6" transform="rotate(0,201,75)"/><rect x="18" y="78" width="6" height="6" transform="rotate(0,21,81)"/><rect x="30" y="78" width="6" height="6" transform="rotate(0,33,81)"/><rect x="36" y="78" width="6" height="6" transform="rotate(0,39,81)"/><rect x="42" y="78" width="6" height="6" transform="rotate(0,45,81)"/><rect x="54" y="78" width="6" height="6" transform="rotate(0,57,81)"/><rect x="60" y="78" width="6" height="6" transform="rotate(0,63,81)"/><rect x="72" y="78" width="6" height="6" transform="rotate(0,75,81)"/><rect x="78" y="78" width="6" height="6" transform="rotate(0,81,81)"/><rect x="102" y="78" width="6" height="6" transform="rotate(0,105,81)"/><rect x="150" y="78" width="6" height="6" transform="rotate(0,153,81)"/><rect x="156" y="78" width="6" height="6" transform="rotate(0,159,81)"/><rect x="162" y="78" width="6" height="6" transform="rotate(0,165,81)"/><rect x="168" y="78" width="6" height="6" transform="rotate(0,171,81)"/><rect x="174" y="78" width="6" height="6" transform="rotate(0,177,81)"/><rect x="180" y="78" width="6" height="6" transform="rotate(0,183,81)"/><rect x="186" y="78" width="6" height="6" transform="rotate(0,189,81)"/><rect x="192" y="78" width="6" height="6" transform="rotate(0,195,81)"/><rect x="198" y="78" width="6" height="6" transform="rotate(0,201,81)"/><rect x="204" y="78" width="6" height="6" transform="rotate(0,207,81)"/><rect x="12" y="84" width="6" height="6" transform="rotate(0,15,87)"/><rect x="24" y="84" width="6" height="6" transform="rotate(0,27,87)"/><rect x="30" y="84" width="6" height="6" transform="rotate(0,33,87)"/><rect x="48" y="84" width="6" height="6" transform="rotate(0,51,87)"/><rect x="54" y="84" width="6" height="6" transform="rotate(0,57,87)"/><rect x="60" y="84" width="6" height="6" transform="rotate(0,63,87)"/><rect x="72" y="84" width="6" height="6" transform="rotate(0,75,87)"/><rect x="78" y="84" width="6" height="6" transform="rotate(0,81,87)"/><rect x="96" y="84" width="6" height="6" transform="rotate(0,99,87)"/><rect x="114" y="84" width="6" height="6" transform="rotate(0,117,87)"/><rect x="120" y="84" width="6" height="6" transform="rotate(0,123,87)"/><rect x="126" y="84" width="6" height="6" transform="rotate(0,129,87)"/><rect x="132" y="84" width="6" height="6" transform="rotate(0,135,87)"/><rect x="144" y="84" width="6" height="6" transform="rotate(0,147,87)"/><rect x="168" y="84" width="6" height="6" transform="rotate(0,171,87)"/><rect x="174" y="84" width="6" height="6" transform="rotate(0,177,87)"/><rect x="204" y="84" width="6" height="6" transform="rotate(0,207,87)"/><rect x="18" y="90" width="6" height="6" transform="rotate(0,21,93)"/><rect x="36" y="90" width="6" height="6" transform="rotate(0,39,93)"/><rect x="54" y="90" width="6" height="6" transform="rotate(0,57,93)"/><rect x="60" y="90" width="6" height="6" transform="rotate(0,63,93)"/><rect x="66" y="90" width="6" height="6" transform="rotate(0,69,93)"/><rect x="78" y="90" width="6" height="6" transform="rotate(0,81,93)"/><rect x="84" y="90" width="6" height="6" transform="rotate(0,87,93)"/><rect x="96" y="90" width="6" height="6" transform="rotate(0,99,93)"/><rect x="108" y="90" width="6" height="6" transform="rotate(0,111,93)"/><rect x="114" y="90" width="6" height="6" transform="rotate(0,117,93)"/><rect x="132" y="90" width="6" height="6" transform="rotate(0,135,93)"/><rect x="138" y="90" width="6" height="6" transform="rotate(0,141,93)"/><rect x="144" y="90" width="6" height="6" transform="rotate(0,147,93)"/><rect x="150" y="90" width="6" height="6" transform="rotate(0,153,93)"/><rect x="162" y="90" width="6" height="6" transform="rotate(0,165,93)"/><rect x="168" y="90" width="6" height="6" transform="rotate(0,171,93)"/><rect x="174" y="90" width="6" height="6" transform="rotate(0,177,93)"/><rect x="192" y="90" width="6" height="6" transform="rotate(0,195,93)"/><rect x="198" y="90" width="6" height="6" transform="rotate(0,201,93)"/><rect x="204" y="90" width="6" height="6" transform="rotate(0,207,93)"/><rect x="12" y="96" width="6" height="6" transform="rotate(0,15,99)"/><rect x="30" y="96" width="6" height="6" transform="rotate(0,33,99)"/><rect x="36" y="96" width="6" height="6" transform="rotate(0,39,99)"/><rect x="42" y="96" width="6" height="6" transform="rotate(0,45,99)"/><rect x="48" y="96" width="6" height="6" transform="rotate(0,51,99)"/><rect x="54" y="96" width="6" height="6" transform="rotate(0,57,99)"/><rect x="60" y="96" width="6" height="6" transform="rotate(0,63,99)"/><rect x="72" y="96" width="6" height="6" transform="rotate(0,75,99)"/><rect x="78" y="96" width="6" height="6" transform="rotate(0,81,99)"/><rect x="84" y="96" width="6" height="6" transform="rotate(0,87,99)"/><rect x="114" y="96" width="6" height="6" transform="rotate(0,117,99)"/><rect x="120" y="96" width="6" height="6" transform="rotate(0,123,99)"/><rect x="126" y="96" width="6" height="6" transform="rotate(0,129,99)"/><rect x="144" y="96" width="6" height="6" transform="rotate(0,147,99)"/><rect x="156" y="96" width="6" height="6" transform="rotate(0,159,99)"/><rect x="162" y="96" width="6" height="6" transform="rotate(0,165,99)"/><rect x="168" y="96" width="6" height="6" transform="rotate(0,171,99)"/><rect x="186" y="96" width="6" height="6" transform="rotate(0,189,99)"/><rect x="198" y="96" width="6" height="6" transform="rotate(0,201,99)"/><rect x="18" y="102" width="6" height="6" transform="rotate(0,21,105)"/><rect x="24" y="102" width="6" height="6" transform="rotate(0,27,105)"/><rect x="30" y="102" width="6" height="6" transform="rotate(0,33,105)"/><rect x="36" y="102" width="6" height="6" transform="rotate(0,39,105)"/><rect x="42" y="102" width="6" height="6" transform="rotate(0,45,105)"/><rect x="54" y="102" width="6" height="6" transform="rotate(0,57,105)"/><rect x="60" y="102" width="6" height="6" transform="rotate(0,63,105)"/><rect x="78" y="102" width="6" height="6" transform="rotate(0,81,105)"/><rect x="84" y="102" width="6" height="6" transform="rotate(0,87,105)"/><rect x="96" y="102" width="6" height="6" transform="rotate(0,99,105)"/><rect x="102" y="102" width="6" height="6" transform="rotate(0,105,105)"/><rect x="120" y="102" width="6" height="6" transform="rotate(0,123,105)"/><rect x="126" y="102" width="6" height="6" transform="rotate(0,129,105)"/><rect x="144" y="102" width="6" height="6" transform="rotate(0,147,105)"/><rect x="150" y="102" width="6" height="6" transform="rotate(0,153,105)"/><rect x="162" y="102" width="6" height="6" transform="rotate(0,165,105)"/><rect x="174" y="102" width="6" height="6" transform="rotate(0,177,105)"/><rect x="180" y="102" width="6" height="6" transform="rotate(0,183,105)"/><rect x="186" y="102" width="6" height="6" transform="rotate(0,189,105)"/><rect x="192" y="102" width="6" height="6" transform="rotate(0,195,105)"/><rect x="204" y="102" width="6" height="6" transform="rotate(0,207,105)"/><rect x="12" y="108" width="6" height="6" transform="rotate(0,15,111)"/><rect x="18" y="108" width="6" height="6" transform="rotate(0,21,111)"/><rect x="36" y="108" width="6" height="6" transform="rotate(0,39,111)"/><rect x="42" y="108" width="6" height="6" transform="rotate(0,45,111)"/><rect x="48" y="108" width="6" height="6" transform="rotate(0,51,111)"/><rect x="60" y="108" width="6" height="6" transform="rotate(0,63,111)"/><rect x="66" y="108" width="6" height="6" transform="rotate(0,69,111)"/><rect x="84" y="108" width="6" height="6" transform="rotate(0,87,111)"/><rect x="96" y="108" width="6" height="6" transform="rotate(0,99,111)"/><rect x="102" y="108" width="6" height="6" transform="rotate(0,105,111)"/><rect x="126" y="108" width="6" height="6" transform="rotate(0,129,111)"/><rect x="144" y="108" width="6" height="6" transform="rotate(0,147,111)"/><rect x="150" y="108" width="6" height="6" transform="rotate(0,153,111)"/><rect x="156" y="108" width="6" height="6" transform="rotate(0,159,111)"/><rect x="162" y="108" width="6" height="6" transform="rotate(0,165,111)"/><rect x="174" y="108" width="6" height="6" transform="rotate(0,177,111)"/><rect x="180" y="108" width="6" height="6" transform="rotate(0,183,111)"/><rect x="204" y="108" width="6" height="6" transform="rotate(0,207,111)"/><rect x="18" y="114" width="6" height="6" transform="rotate(0,21,117)"/><rect x="30" y="114" width="6" height="6" transform="rotate(0,33,117)"/><rect x="36" y="114" width="6" height="6" transform="rotate(0,39,117)"/><rect x="42" y="114" width="6" height="6" transform="rotate(0,45,117)"/><rect x="60" y="114" width="6" height="6" transform="rotate(0,63,117)"/><rect x="66" y="114" width="6" height="6" transform="rotate(0,69,117)"/><rect x="72" y="114" width="6" height="6" transform="rotate(0,75,117)"/><rect x="84" y="114" width="6" height="6" transform="rotate(0,87,117)"/><rect x="96" y="114" width="6" height="6" transform="rotate(0,99,117)"/><rect x="108" y="114" width="6" height="6" transform="rotate(0,111,117)"/><rect x="114" y="114" width="6" height="6" transform="rotate(0,117,117)"/><rect x="120" y="114" width="6" height="6" transform="rotate(0,123,117)"/><rect x="126" y="114" width="6" height="6" transform="rotate(0,129,117)"/><rect x="132" y="114" width="6" height="6" transform="rotate(0,135,117)"/><rect x="150" y="114" width="6" height="6" transform="rotate(0,153,117)"/><rect x="162" y="114" width="6" height="6" transform="rotate(0,165,117)"/><rect x="168" y="114" width="6" height="6" transform="rotate(0,171,117)"/><rect x="186" y="114" width="6" height="6" transform="rotate(0,189,117)"/><rect x="192" y="114" width="6" height="6" transform="rotate(0,195,117)"/><rect x="198" y="114" width="6" height="6" transform="rotate(0,201,117)"/><rect x="204" y="114" width="6" height="6" transform="rotate(0,207,117)"/><rect x="12" y="120" width="6" height="6" transform="rotate(0,15,123)"/><rect x="42" y="120" width="6" height="6" transform="rotate(0,45,123)"/><rect x="48" y="120" width="6" height="6" transform="rotate(0,51,123)"/><rect x="54" y="120" width="6" height="6" transform="rotate(0,57,123)"/><rect x="66" y="120" width="6" height="6" transform="rotate(0,69,123)"/><rect x="72" y="120" width="6" height="6" transform="rotate(0,75,123)"/><rect x="78" y="120" width="6" height="6" transform="rotate(0,81,123)"/><rect x="102" y="120" width="6" height="6" transform="rotate(0,105,123)"/><rect x="108" y="120" width="6" height="6" transform="rotate(0,111,123)"/><rect x="120" y="120" width="6" height="6" transform="rotate(0,123,123)"/><rect x="126" y="120" width="6" height="6" transform="rotate(0,129,123)"/><rect x="132" y="120" width="6" height="6" transform="rotate(0,135,123)"/><rect x="150" y="120" width="6" height="6" transform="rotate(0,153,123)"/><rect x="162" y="120" width="6" height="6" transform="rotate(0,165,123)"/><rect x="168" y="120" width="6" height="6" transform="rotate(0,171,123)"/><rect x="174" y="120" width="6" height="6" transform="rotate(0,177,123)"/><rect x="186" y="120" width="6" height="6" transform="rotate(0,189,123)"/><rect x="192" y="120" width="6" height="6" transform="rotate(0,195,123)"/><rect x="198" y="120" width="6" height="6" transform="rotate(0,201,123)"/><rect x="204" y="120" width="6" height="6" transform="rotate(0,207,123)"/><rect x="42" y="126" width="6" height="6" transform="rotate(0,45,129)"/><rect x="54" y="126" width="6" height="6" transform="rotate(0,57,129)"/><rect x="60" y="126" width="6" height="6" transform="rotate(0,63,129)"/><rect x="72" y="126" width="6" height="6" transform="rotate(0,75,129)"/><rect x="96" y="126" width="6" height="6" transform="rotate(0,99,129)"/><rect x="102" y="126" width="6" height="6" transform="rotate(0,105,129)"/><rect x="108" y="126" width="6" height="6" transform="rotate(0,111,129)"/><rect x="120" y="126" width="6" height="6" transform="rotate(0,123,129)"/><rect x="150" y="126" width="6" height="6" transform="rotate(0,153,129)"/><rect x="156" y="126" width="6" height="6" transform="rotate(0,159,129)"/><rect x="162" y="126" width="6" height="6" transform="rotate(0,165,129)"/><rect x="180" y="126" width="6" height="6" transform="rotate(0,183,129)"/><rect x="186" y="126" width="6" height="6" transform="rotate(0,189,129)"/><rect x="192" y="126" width="6" height="6" transform="rotate(0,195,129)"/><rect x="204" y="126" width="6" height="6" transform="rotate(0,207,129)"/><rect x="12" y="132" width="6" height="6" transform="rotate(0,15,135)"/><rect x="18" y="132" width="6" height="6" transform="rotate(0,21,135)"/><rect x="30" y="132" width="6" height="6" transform="rotate(0,33,135)"/><rect x="36" y="132" width="6" height="6" transform="rotate(0,39,135)"/><rect x="42" y="132" width="6" height="6" transform="rotate(0,45,135)"/><rect x="48" y="132" width="6" height="6" transform="rotate(0,51,135)"/><rect x="72" y="132" width="6" height="6" transform="rotate(0,75,135)"/><rect x="90" y="132" width="6" height="6" transform="rotate(0,93,135)"/><rect x="102" y="132" width="6" height="6" transform="rotate(0,105,135)"/><rect x="114" y="132" width="6" height="6" transform="rotate(0,117,135)"/><rect x="150" y="132" width="6" height="6" transform="rotate(0,153,135)"/><rect x="156" y="132" width="6" height="6" transform="rotate(0,159,135)"/><rect x="162" y="132" width="6" height="6" transform="rotate(0,165,135)"/><rect x="174" y="132" width="6" height="6" transform="rotate(0,177,135)"/><rect x="180" y="132" width="6" height="6" transform="rotate(0,183,135)"/><rect x="186" y="132" width="6" height="6" transform="rotate(0,189,135)"/><rect x="204" y="132" width="6" height="6" transform="rotate(0,207,135)"/><rect x="12" y="138" width="6" height="6" transform="rotate(0,15,141)"/><rect x="24" y="138" width="6" height="6" transform="rotate(0,27,141)"/><rect x="30" y="138" width="6" height="6" transform="rotate(0,33,141)"/><rect x="36" y="138" width="6" height="6" transform="rotate(0,39,141)"/><rect x="66" y="138" width="6" height="6" transform="rotate(0,69,141)"/><rect x="72" y="138" width="6" height="6" transform="rotate(0,75,141)"/><rect x="84" y="138" width="6" height="6" transform="rotate(0,87,141)"/><rect x="102" y="138" width="6" height="6" transform="rotate(0,105,141)"/><rect x="108" y="138" width="6" height="6" transform="rotate(0,111,141)"/><rect x="132" y="138" width="6" height="6" transform="rotate(0,135,141)"/><rect x="138" y="138" width="6" height="6" transform="rotate(0,141,141)"/><rect x="150" y="138" width="6" height="6" transform="rotate(0,153,141)"/><rect x="174" y="138" width="6" height="6" transform="rotate(0,177,141)"/><rect x="180" y="138" width="6" height="6" transform="rotate(0,183,141)"/><rect x="192" y="138" width="6" height="6" transform="rotate(0,195,141)"/><rect x="12" y="144" width="6" height="6" transform="rotate(0,15,147)"/><rect x="30" y="144" width="6" height="6" transform="rotate(0,33,147)"/><rect x="42" y="144" width="6" height="6" transform="rotate(0,45,147)"/><rect x="48" y="144" width="6" height="6" transform="rotate(0,51,147)"/><rect x="54" y="144" width="6" height="6" transform="rotate(0,57,147)"/><rect x="60" y="144" width="6" height="6" transform="rotate(0,63,147)"/><rect x="72" y="144" width="6" height="6" transform="rotate(0,75,147)"/><rect x="78" y="144" width="6" height="6" transform="rotate(0,81,147)"/><rect x="90" y="144" width="6" height="6" transform="rotate(0,93,147)"/><rect x="96" y="144" width="6" height="6" transform="rotate(0,99,147)"/><rect x="102" y="144" width="6" height="6" transform="rotate(0,105,147)"/><rect x="108" y="144" width="6" height="6" transform="rotate(0,111,147)"/><rect x="120" y="144" width="6" height="6" transform="rotate(0,123,147)"/><rect x="138" y="144" width="6" height="6" transform="rotate(0,141,147)"/><rect x="144" y="144" width="6" height="6" transform="rotate(0,147,147)"/><rect x="156" y="144" width="6" height="6" transform="rotate(0,159,147)"/><rect x="162" y="144" width="6" height="6" transform="rotate(0,165,147)"/><rect x="186" y="144" width="6" height="6" transform="rotate(0,189,147)"/><rect x="198" y="144" width="6" height="6" transform="rotate(0,201,147)"/><rect x="12" y="150" width="6" height="6" transform="rotate(0,15,153)"/><rect x="30" y="150" width="6" height="6" transform="rotate(0,33,153)"/><rect x="36" y="150" width="6" height="6" transform="rotate(0,39,153)"/><rect x="66" y="150" width="6" height="6" transform="rotate(0,69,153)"/><rect x="108" y="150" width="6" height="6" transform="rotate(0,111,153)"/><rect x="126" y="150" width="6" height="6" transform="rotate(0,129,153)"/><rect x="132" y="150" width="6" height="6" transform="rotate(0,135,153)"/><rect x="144" y="150" width="6" height="6" transform="rotate(0,147,153)"/><rect x="186" y="150" width="6" height="6" transform="rotate(0,189,153)"/><rect x="192" y="150" width="6" height="6" transform="rotate(0,195,153)"/><rect x="204" y="150" width="6" height="6" transform="rotate(0,207,153)"/><rect x="12" y="156" width="6" height="6" transform="rotate(0,15,159)"/><rect x="18" y="156" width="6" height="6" transform="rotate(0,21,159)"/><rect x="48" y="156" width="6" height="6" transform="rotate(0,51,159)"/><rect x="72" y="156" width="6" height="6" transform="rotate(0,75,159)"/><rect x="78" y="156" width="6" height="6" transform="rotate(0,81,159)"/><rect x="84" y="156" width="6" height="6" transform="rotate(0,87,159)"/><rect x="90" y="156" width="6" height="6" transform="rotate(0,93,159)"/><rect x="96" y="156" width="6" height="6" transform="rotate(0,99,159)"/><rect x="108" y="156" width="6" height="6" transform="rotate(0,111,159)"/><rect x="114" y="156" width="6" height="6" transform="rotate(0,117,159)"/><rect x="120" y="156" width="6" height="6" transform="rotate(0,123,159)"/><rect x="126" y="156" width="6" height="6" transform="rotate(0,129,159)"/><rect x="150" y="156" width="6" height="6" transform="rotate(0,153,159)"/><rect x="156" y="156" width="6" height="6" transform="rotate(0,159,159)"/><rect x="162" y="156" width="6" height="6" transform="rotate(0,165,159)"/><rect x="168" y="156" width="6" height="6" transform="rotate(0,171,159)"/><rect x="174" y="156" width="6" height="6" transform="rotate(0,177,159)"/><rect x="180" y="156" width="6" height="6" transform="rotate(0,183,159)"/><rect x="186" y="156" width="6" height="6" transform="rotate(0,189,159)"/><rect x="198" y="156" width="6" height="6" transform="rotate(0,201,159)"/><rect x="60" y="162" width="6" height="6" transform="rotate(0,63,165)"/><rect x="78" y="162" width="6" height="6" transform="rotate(0,81,165)"/><rect x="90" y="162" width="6" height="6" transform="rotate(0,93,165)"/><rect x="102" y="162" width="6" height="6" transform="rotate(0,105,165)"/><rect x="126" y="162" width="6" height="6" transform="rotate(0,129,165)"/><rect x="132" y="162" width="6" height="6" transform="rotate(0,135,165)"/><rect x="156" y="162" width="6" height="6" transform="rotate(0,159,165)"/><rect x="180" y="162" width="6" height="6" transform="rotate(0,183,165)"/><rect x="192" y="162" width="6" height="6" transform="rotate(0,195,165)"/><rect x="204" y="162" width="6" height="6" transform="rotate(0,207,165)"/><rect x="60" y="168" width="6" height="6" transform="rotate(0,63,171)"/><rect x="78" y="168" width="6" height="6" transform="rotate(0,81,171)"/><rect x="84" y="168" width="6" height="6" transform="rotate(0,87,171)"/><rect x="96" y="168" width="6" height="6" transform="rotate(0,99,171)"/><rect x="102" y="168" width="6" height="6" transform="rotate(0,105,171)"/><rect x="120" y="168" width="6" height="6" transform="rotate(0,123,171)"/><rect x="132" y="168" width="6" height="6" transform="rotate(0,135,171)"/><rect x="138" y="168" width="6" height="6" transform="rotate(0,141,171)"/><rect x="144" y="168" width="6" height="6" transform="rotate(0,147,171)"/><rect x="150" y="168" width="6" height="6" transform="rotate(0,153,171)"/><rect x="156" y="168" width="6" height="6" transform="rotate(0,159,171)"/><rect x="168" y="168" width="6" height="6" transform="rotate(0,171,171)"/><rect x="180" y="168" width="6" height="6" transform="rotate(0,183,171)"/><rect x="192" y="168" width="6" height="6" transform="rotate(0,195,171)"/><rect x="198" y="168" width="6" height="6" transform="rotate(0,201,171)"/><rect x="66" y="174" width="6" height="6" transform="rotate(0,69,177)"/><rect x="72" y="174" width="6" height="6" transform="rotate(0,75,177)"/><rect x="78" y="174" width="6" height="6" transform="rotate(0,81,177)"/><rect x="84" y="174" width="6" height="6" transform="rotate(0,87,177)"/><rect x="90" y="174" width="6" height="6" transform="rotate(0,93,177)"/><rect x="108" y="174" width="6" height="6" transform="rotate(0,111,177)"/><rect x="114" y="174" width="6" height="6" transform="rotate(0,117,177)"/><rect x="120" y="174" width="6" height="6" transform="rotate(0,123,177)"/><rect x="126" y="174" width="6" height="6" transform="rotate(0,129,177)"/><rect x="144" y="174" width="6" height="6" transform="rotate(0,147,177)"/><rect x="150" y="174" width="6" height="6" transform="rotate(0,153,177)"/><rect x="156" y="174" width="6" height="6" transform="rotate(0,159,177)"/><rect x="180" y="174" width="6" height="6" transform="rotate(0,183,177)"/><rect x="186" y="174" width="6" height="6" transform="rotate(0,189,177)"/><rect x="192" y="174" width="6" height="6" transform="rotate(0,195,177)"/><rect x="198" y="174" width="6" height="6" transform="rotate(0,201,177)"/><rect x="204" y="174" width="6" height="6" transform="rotate(0,207,177)"/><rect x="90" y="180" width="6" height="6" transform="rotate(0,93,183)"/><rect x="96" y="180" width="6" height="6" transform="rotate(0,99,183)"/><rect x="120" y="180" width="6" height="6" transform="rotate(0,123,183)"/><rect x="126" y="180" width="6" height="6" transform="rotate(0,129,183)"/><rect x="132" y="180" width="6" height="6" transform="rotate(0,135,183)"/><rect x="144" y="180" width="6" height="6" transform="rotate(0,147,183)"/><rect x="156" y="180" width="6" height="6" transform="rotate(0,159,183)"/><rect x="162" y="180" width="6" height="6" transform="rotate(0,165,183)"/><rect x="168" y="180" width="6" height="6" transform="rotate(0,171,183)"/><rect x="174" y="180" width="6" height="6" transform="rotate(0,177,183)"/><rect x="180" y="180" width="6" height="6" transform="rotate(0,183,183)"/><rect x="186" y="180" width="6" height="6" transform="rotate(0,189,183)"/><rect x="78" y="186" width="6" height="6" transform="rotate(0,81,189)"/><rect x="90" y="186" width="6" height="6" transform="rotate(0,93,189)"/><rect x="96" y="186" width="6" height="6" transform="rotate(0,99,189)"/><rect x="102" y="186" width="6" height="6" transform="rotate(0,105,189)"/><rect x="126" y="186" width="6" height="6" transform="rotate(0,129,189)"/><rect x="150" y="186" width="6" height="6" transform="rotate(0,153,189)"/><rect x="156" y="186" width="6" height="6" transform="rotate(0,159,189)"/><rect x="162" y="186" width="6" height="6" transform="rotate(0,165,189)"/><rect x="174" y="186" width="6" height="6" transform="rotate(0,177,189)"/><rect x="180" y="186" width="6" height="6" transform="rotate(0,183,189)"/><rect x="186" y="186" width="6" height="6" transform="rotate(0,189,189)"/><rect x="204" y="186" width="6" height="6" transform="rotate(0,207,189)"/><rect x="66" y="192" width="6" height="6" transform="rotate(0,69,195)"/><rect x="84" y="192" width="6" height="6" transform="rotate(0,87,195)"/><rect x="96" y="192" width="6" height="6" transform="rotate(0,99,195)"/><rect x="102" y="192" width="6" height="6" transform="rotate(0,105,195)"/><rect x="108" y="192" width="6" height="6" transform="rotate(0,111,195)"/><rect x="126" y="192" width="6" height="6" transform="rotate(0,129,195)"/><rect x="138" y="192" width="6" height="6" transform="rotate(0,141,195)"/><rect x="150" y="192" width="6" height="6" transform="rotate(0,153,195)"/><rect x="162" y="192" width="6" height="6" transform="rotate(0,165,195)"/><rect x="174" y="192" width="6" height="6" transform="rotate(0,177,195)"/><rect x="180" y="192" width="6" height="6" transform="rotate(0,183,195)"/><rect x="192" y="192" width="6" height="6" transform="rotate(0,195,195)"/><rect x="198" y="192" width="6" height="6" transform="rotate(0,201,195)"/><rect x="204" y="192" width="6" height="6" transform="rotate(0,207,195)"/><rect x="60" y="198" width="6" height="6" transform="rotate(0,63,201)"/><rect x="84" y="198" width="6" height="6" transform="rotate(0,87,201)"/><rect x="96" y="198" width="6" height="6" transform="rotate(0,99,201)"/><rect x="102" y="198" width="6" height="6" transform="rotate(0,105,201)"/><rect x="114" y="198" width="6" height="6" transform="rotate(0,117,201)"/><rect x="132" y="198" width="6" height="6" transform="rotate(0,135,201)"/><rect x="144" y="198" width="6" height="6" transform="rotate(0,147,201)"/><rect x="150" y="198" width="6" height="6" transform="rotate(0,153,201)"/><rect x="168" y="198" width="6" height="6" transform="rotate(0,171,201)"/><rect x="174" y="198" width="6" height="6" transform="rotate(0,177,201)"/><rect x="180" y="198" width="6" height="6" transform="rotate(0,183,201)"/><rect x="186" y="198" width="6" height="6" transform="rotate(0,189,201)"/><rect x="192" y="198" width="6" height="6" transform="rotate(0,195,201)"/><rect x="72" y="204" width="6" height="6" transform="rotate(0,75,207)"/><rect x="84" y="204" width="6" height="6" transform="rotate(0,87,207)"/><rect x="108" y="204" width="6" height="6" transform="rotate(0,111,207)"/><rect x="120" y="204" width="6" height="6" transform="rotate(0,123,207)"/><rect x="156" y="204" width="6" height="6" transform="rotate(0,159,207)"/><rect x="168" y="204" width="6" height="6" transform="rotate(0,171,207)"/><rect x="174" y="204" width="6" height="6" transform="rotate(0,177,207)"/><rect x="186" y="204" width="6" height="6" transform="rotate(0,189,207)"/><rect x="198" y="204" width="6" height="6" transform="rotate(0,201,207)"/></g></svg>